<svg width="65" height="63" viewBox="0 0 65 63" fill="none" xmlns="http://www.w3.org/2000/svg">
<circle cx="32.5161" cy="31.5" r="31.25" stroke="white" stroke-width="0.5"/>
<path d="M8.36007 10.2885C8.18219 10.4282 8.02684 10.5604 7.86389 10.7098C7.83448 10.7368 7.74853 10.8805 7.73084 10.8844C7.63434 10.9059 7.48563 10.9783 7.41207 10.8817C7.23992 10.6554 7.21249 10.3401 7.21249 10.0667C7.21249 9.76619 7.16726 9.45517 7.33722 9.19078C7.48898 8.95471 7.46196 8.71035 7.46196 8.43958C7.46196 8.20767 7.46196 7.97575 7.46196 7.74383C7.46196 7.29826 7.72698 7.63961 7.98308 7.68839C8.09948 7.71056 8.23745 7.71477 8.34898 7.75492C8.46663 7.79727 8.44271 7.89351 8.60954 7.89351C8.6584 7.89351 8.83232 7.92051 8.83684 7.84362C8.84222 7.75214 8.66554 7.70389 8.79249 7.73274C9.17855 7.82048 9.51705 7.99741 9.91512 8.06537C10.1028 8.09742 10.2447 8.24278 10.4252 8.24278C10.6371 8.24278 10.8045 8.19288 11.0045 8.19288C11.3627 8.19288 11.6522 8.44236 11.9802 8.44236C12.3564 8.44236 12.7187 8.43793 13.0834 8.54215C13.2914 8.60156 13.5329 8.61922 13.7487 8.64194C13.8711 8.65482 14.0541 8.89947 14.17 8.96348C14.5523 9.17457 14.6803 9.47688 14.8935 9.81446C15.021 10.0163 15.1782 10.3416 15.1957 10.5767C15.2172 10.868 15.5369 11.1474 15.7057 11.3584C16.231 12.0151 16.8469 12.599 17.6516 12.8941C18.0946 13.0565 17.9439 12.4791 17.9925 12.1872C18.0226 12.0065 18.5723 12.2843 18.6883 12.2843C18.9715 12.2843 19.2035 12.384 19.4866 12.384C19.6166 12.384 20.2236 12.4636 20.2849 12.3563C20.3355 12.2678 19.5343 12.2843 19.3757 12.2843C19.0712 12.2843 19.5601 12.2884 19.6363 12.2732C19.7707 12.2463 19.8777 12.027 19.6917 11.996C19.4137 11.9496 18.5644 11.9849 18.8463 11.9849C19.0602 11.9849 19.268 12.0348 19.4838 12.0348C19.855 12.0348 20.2183 12.0748 20.5843 12.0847C20.8671 12.0923 21.0734 12.2368 21.3493 12.287C21.471 12.3091 21.2828 12.782 21.2828 12.8553C21.2828 13.1152 21.2507 13.4939 21.183 13.7478C21.1135 14.0084 21.2161 14.3643 21.1082 14.6016C21.0378 14.7565 20.9834 15.0565 20.9834 15.228C20.9834 15.5279 20.9401 15.7443 20.8837 16.0264" stroke="white" stroke-width="5" stroke-linecap="round" stroke-linejoin="round"/>
<path d="M20.3849 17.4234C20.3849 17.6242 20.4262 17.8987 20.3821 18.097C20.3594 18.1993 20.242 18.1401 20.1853 18.194C20.1038 18.2714 20.0231 18.4315 19.9968 18.5433C19.9569 18.7131 19.8859 18.862 19.8859 19.045C19.8859 19.2311 19.7476 19.2903 19.6475 19.3804C19.5305 19.4857 19.4159 19.5858 19.3898 19.7685C19.3642 19.9476 19.2928 19.9901 19.1763 20.1066C18.9221 20.3609 18.6448 20.4586 18.3669 20.686C18.2408 20.7891 18.0139 20.7664 17.8624 20.7664C17.6488 20.7664 17.481 20.8661 17.2665 20.8661C16.8257 20.8661 16.2545 20.9883 15.9332 20.6555C15.5261 20.2339 15.635 19.5427 15.6477 19.0117C15.665 18.2845 15.9938 17.7535 16.2713 17.1019C16.588 16.3583 16.9298 15.6647 17.3302 14.9619C17.5055 14.6544 17.3329 14.6738 17.0004 14.743C16.3342 14.8814 15.7004 15.1909 15.1487 15.5828C14.8657 15.7839 14.6353 16.0448 14.3532 16.2453C13.977 16.5128 13.528 16.666 13.0864 16.7859C12.9774 16.8154 11.9431 17.1288 12.0414 16.7803C12.2011 16.2139 12.7838 15.859 13.1668 15.4553C13.4966 15.1077 14.0495 14.5926 14.1369 14.0915C14.2547 13.4171 13.7977 13.1371 13.2555 12.8359C13.018 12.7039 12.7836 12.5272 12.5181 12.4617C11.9903 12.3313 11.4805 12.3341 10.9381 12.3341C10.6286 12.3341 10.2362 12.2711 9.9347 12.3646C9.65059 12.4528 9.52422 12.8162 9.30824 13.0022C9.08439 13.1949 8.87613 13.2781 8.582 13.2821C8.06157 13.2894 7.77696 12.7929 7.42887 12.4617C6.87762 11.9371 6.23732 11.5091 5.69364 10.9814C5.61048 10.9007 5.52642 10.7553 5.47189 10.6599C5.41144 10.5541 5.60995 10.4539 5.61603 10.3384C5.6252 10.1641 5.66592 10.0052 5.66592 9.82832C5.66592 9.5979 5.8452 9.54598 5.90985 9.36817C5.95603 9.2412 6.01207 9.11228 6.07617 8.99119C6.15784 8.83692 6.29772 8.6949 6.11498 8.96902C5.99084 9.15522 6.02882 9.38352 5.88768 9.56498C5.66918 9.84591 5.74215 10.4422 5.76849 10.7846C5.78418 10.9886 5.91015 11.2026 5.9154 11.3861C5.9194 11.526 5.87129 11.7454 5.96529 11.8629C6.01573 11.926 6.01519 11.9499 6.01519 12.0348" stroke="white" stroke-width="3" stroke-linecap="round" stroke-linejoin="round"/>
<path d="M11.4536 14.6792C11.5971 15.1008 11.5313 15.4692 11.3926 15.8822C11.1352 16.6489 10.8392 17.3945 10.5943 18.1663C10.4126 18.739 10.1484 19.2125 9.76829 19.6687C9.63208 19.8321 9.55067 20.247 9.64078 19.7685C9.87991 18.4986 10.338 17.2936 10.8161 16.0984C10.9614 15.7352 11.1383 15.365 11.1931 14.973C11.205 14.8879 11.246 14.7186 11.1044 14.8178C10.7766 15.0472 10.522 15.3948 10.2783 15.7048C9.65718 16.4951 9.10767 17.3262 8.60962 18.1996C8.09623 19.0998 7.56471 20.0287 7.1793 20.9937C7.04949 21.3187 6.86794 21.7662 6.89657 22.1302C6.93624 22.6345 7.96062 21.6962 8.04415 21.6312C8.83202 21.0177 9.77563 20.3736 10.3005 19.5024C10.3648 19.3957 10.7458 18.7536 10.4225 18.693C9.84346 18.5844 9.22203 19.6936 9.09748 20.1122C9.06753 20.2129 8.86421 21.4066 9.05313 21.4538C9.90583 21.667 11.0089 21.099 11.6809 20.6555C12.5106 20.1079 13.2517 19.3878 13.9872 18.7207C14.3857 18.3592 14.8701 17.8555 15.3731 17.6452C15.4482 17.6138 15.4884 17.6006 15.3898 17.6563C15.0848 17.8284 14.8809 18.1431 14.6691 18.4102C14.2013 19 13.6996 19.5576 13.2166 20.1344C12.9613 20.4393 12.6415 20.7849 12.4848 21.16C12.4325 21.2851 12.7513 21.0916 12.8673 21.0214C13.5196 20.6264 14.1457 20.2106 14.8243 19.8572C16.2152 19.1328 17.9638 18.546 19.0653 17.3624C19.2688 17.1438 19.7267 16.4626 19.3647 16.2259C19.2186 16.1304 18.9719 16.0838 18.7992 16.1372C18.5583 16.2118 18.6941 16.9452 18.7715 17.1019C18.9624 17.4879 19.7671 17.8029 20.1852 17.5897C20.3611 17.5001 20.4265 17.2863 20.5345 17.1351C20.5827 17.0676 20.7375 17.0485 20.7341 16.9633C20.7283 16.8195 20.4347 16.5873 20.4347 16.8358C20.4347 17.0866 20.5345 17.3116 20.5345 17.562C20.5345 17.7992 20.5841 18.0698 20.4458 18.2716C20.3505 18.4105 20.1107 18.5262 20.0466 18.6597C20.0117 18.7324 20.0046 18.8104 19.9745 18.8814C19.926 18.9962 19.7938 18.9878 19.7861 19.1198C19.7807 19.2115 19.632 19.4967 19.5754 19.5578C19.4424 19.7014 19.3718 19.8247 19.2649 19.9791C19.2115 20.0563 19.0033 20.3733 18.9378 20.406C18.5649 20.5925 17.9909 20.2881 17.6517 20.4892C17.6258 20.5045 17.2133 20.6661 17.2525 20.7054C17.2921 20.745 17.5466 20.9359 17.2913 20.9659C17.2353 20.9725 17.2188 21.0327 17.1693 21.0546C17.0871 21.0912 16.9512 21.0633 16.8644 21.0657C16.1715 21.0855 15.4073 21.0769 14.7356 21.2875C13.6159 21.6386 12.6326 22.3222 11.5867 22.8287C11.5729 22.8354 11.3025 22.9931 11.3926 22.9118C11.6023 22.7227 11.7909 22.5101 12.0136 22.3353C12.431 22.0075 12.941 21.8974 13.4383 21.7476C13.6894 21.672 13.7987 21.6863 13.7987 21.9417C13.7987 22.0562 13.6932 22.4501 13.7432 22.5238C13.8769 22.7207 14.4691 22.6054 14.6691 22.6236C14.9861 22.6524 15.252 22.7782 15.545 22.8619" stroke="white" stroke-width="3" stroke-linecap="round" stroke-linejoin="round"/>
<path d="M21.6827 17.6393C21.6827 17.7895 21.7009 17.9479 21.6509 18.0919C21.624 18.1696 21.6619 17.9688 21.6792 17.9328C21.7068 17.8753 21.7023 17.862 21.6385 17.862C21.5544 17.862 21.5144 17.9405 21.4794 18.0088C21.4072 18.1498 21.3892 18.3207 21.3238 18.4667C21.2844 18.5548 21.2517 18.6508 21.216 18.7407C21.1991 18.7832 21.2039 18.8313 21.1806 18.8716C21.1542 18.9173 21.1169 18.9587 21.0852 19.0006C21.0253 19.0796 20.9428 19.1301 20.881 19.2057C20.7946 19.3112 20.7086 19.3949 20.6405 19.516C20.6162 19.5592 20.6053 19.6127 20.5998 19.6618C20.593 19.7238 20.5555 19.7784 20.553 19.8422C20.5509 19.8958 20.5172 19.9587 20.5212 20.0101C20.5239 20.0459 20.5458 19.9425 20.5539 19.9076C20.5667 19.8526 20.5966 19.8076 20.6166 19.7555C20.633 19.713 20.6545 19.6845 20.6927 19.6601C20.7224 19.641 20.7121 19.6796 20.7121 19.7025C20.7121 19.789 20.6917 19.849 20.6467 19.9235C20.5745 20.0431 20.4834 20.1396 20.4036 20.2506C20.3485 20.3273 20.3372 20.4169 20.2675 20.4866C20.2286 20.5255 20.1937 20.5981 20.164 20.6466C20.1273 20.7068 20.0833 20.7521 20.0279 20.7969C19.8838 20.9133 19.7449 21.028 19.5983 21.1407C19.428 21.2718 19.2364 21.3432 19.0485 21.4422C18.8816 21.53 18.6967 21.595 18.5198 21.665C18.4116 21.7078 18.3101 21.7367 18.1981 21.764C18.1041 21.7868 18.0124 21.8215 17.9187 21.8409C17.8203 21.8612 17.7496 21.8877 17.6465 21.8877C17.541 21.8877 17.4355 21.8877 17.33 21.8877C17.2155 21.8877 17.0658 21.9109 16.9888 21.8082" stroke="white" stroke-width="3" stroke-linecap="round" stroke-linejoin="round"/>
<path d="M5.76341 8.28774C5.79894 8.19671 5.83748 8.1049 5.73701 8.04749C5.70052 8.02664 5.62084 7.94127 5.62084 7.89568C5.62084 7.86732 5.6455 7.86066 5.63933 7.87456C5.61032 7.93983 5.53905 8.00545 5.50204 8.07125C5.43395 8.19229 5.38422 8.37549 5.27631 8.46463C4.91861 8.76012 4.69594 9.16722 4.55686 9.59989C4.5268 9.69342 4.50791 9.79668 4.48294 9.89031C4.45139 10.0086 4.43278 10.1012 4.43278 10.2256C4.43278 10.5288 4.43278 10.832 4.43278 11.1351C4.43278 11.226 4.3802 11.321 4.36677 11.4137C4.35155 11.5187 4.30786 11.6138 4.28493 11.7147C4.22292 11.9875 4.0065 12.0269 3.82554 12.1978C3.71677 12.3005 3.57532 12.3578 3.45856 12.4486C3.28577 12.583 3.31599 12.7826 3.31599 12.9832C3.31599 13.0745 3.31005 13.1684 3.32127 13.2591C3.34358 13.4394 3.48892 13.5387 3.63017 13.634C3.99481 13.8803 4.7852 14.1308 5.06905 13.6446C5.26609 13.3071 5.37136 12.8565 5.473 12.4829C5.58429 12.0738 5.66362 11.6561 5.66837 11.2315C5.67173 10.9309 5.67266 10.6291 5.66837 10.3286C5.66665 10.2081 5.63833 10.1064 5.6116 9.99064C5.59048 9.89911 5.60317 9.80502 5.58256 9.71342C5.53078 9.48328 5.4913 9.27878 5.4796 9.03886C5.4711 8.86459 5.47828 8.68806 5.47828 8.51347C5.47828 8.4048 5.53774 8.10106 5.39115 8.09765C5.352 8.09674 5.07874 8.10596 5.23538 8.18741C5.29558 8.21872 5.31574 8.289 5.38323 8.3115" stroke="white" stroke-width="3" stroke-linecap="round" stroke-linejoin="round"/>
<path d="M9.49407 14.5607C8.49743 14.4937 7.50199 14.3553 6.50278 14.3469C6.49026 14.3468 5.99948 14.3143 6.00643 14.3786C6.02261 14.5283 6.19102 14.7193 6.27176 14.8195C6.50083 15.1035 6.76265 15.3561 7.04401 15.5878C7.23933 15.7486 7.44828 15.8912 7.65124 16.0419C7.71013 16.0856 7.78839 16.1359 7.83077 16.2003C7.86235 16.2482 7.84854 16.2925 7.83077 16.3428C7.77146 16.5109 7.6211 16.5616 7.46643 16.6214C7.234 16.7112 7.02789 16.8099 6.77735 16.8498C6.43474 16.9043 6.08542 16.8894 5.73977 16.8894C5.59399 16.8894 5.44229 16.9045 5.33451 16.789C5.20055 16.6455 5.10283 16.4674 4.98469 16.3112C4.88517 16.1795 4.85241 16.043 4.7286 15.9257C4.60194 15.8057 4.36837 15.7743 4.20849 15.7277C4.05066 15.6817 3.91464 15.6775 3.75174 15.6775C3.48791 15.6775 3.14135 15.7564 2.9597 15.964C2.89409 16.039 2.87947 16.0284 2.80525 16.0696C2.76901 16.0897 2.74585 16.134 2.70888 16.1488C2.64714 16.1735 2.56074 16.1257 2.51879 16.2003C2.49297 16.2462 2.53117 16.2445 2.56103 16.2478C2.62774 16.2552 2.6664 16.3406 2.69832 16.3904C2.77127 16.5041 2.85825 16.6768 2.88577 16.8075C2.91511 16.9468 3.00624 17.0637 3.06398 17.1969C3.13497 17.3607 3.24262 17.5398 3.36892 17.6682C3.54568 17.8479 3.73565 18.0082 3.94447 18.1487C4.09192 18.2479 4.19321 18.4137 4.3669 18.4761C4.45065 18.5062 4.53693 18.5157 4.62299 18.5342C4.74282 18.5598 4.83244 18.6206 4.96093 18.6239C5.12053 18.6281 5.28749 18.6297 5.44408 18.5949C5.65675 18.5476 5.8201 18.4043 6.02095 18.3309C6.13428 18.2895 6.19733 18.2379 6.2546 18.3639C6.3552 18.5852 6.4194 18.8182 6.44865 19.0596C6.48023 19.3201 6.44447 19.5992 6.23348 19.775C6.13254 19.8592 6.05786 19.98 5.97211 20.0787C5.8304 20.2416 5.64968 20.3637 5.51008 20.5275C5.40138 20.655 5.36611 20.7916 5.27643 20.9288C5.2193 21.0162 5.16737 21.1083 5.10614 21.1928C5.01234 21.3222 4.88356 21.4126 4.7814 21.5334C4.67778 21.6558 4.57021 21.7756 4.48174 21.9083C4.43097 21.9844 4.48042 21.7252 4.48042 21.6337C4.48042 21.5247 4.48275 21.4315 4.53983 21.3354C4.591 21.2492 4.65693 21.1742 4.72332 21.1004C4.75143 21.0692 4.7946 20.8786 4.78932 21.0318C4.77419 21.4705 4.54954 21.9489 4.36294 22.3386C4.25576 22.5624 4.13543 22.7909 4.12532 23.0435C4.11742 23.241 4.124 23.4399 4.124 23.6376" stroke="white" stroke-width="3" stroke-linecap="round" stroke-linejoin="round"/>
<path d="M3.46853 23.5007C3.46853 23.1644 3.32335 22.9065 3.32335 22.5877C3.32335 22.529 3.31217 22.4552 3.33948 22.4005C3.35961 22.3603 3.3968 22.358 3.41046 22.3102C3.43347 22.2297 3.72165 22.1905 3.63953 22.207C3.31275 22.2723 3.18391 22.7695 3.14913 23.0361C3.13793 23.122 3.07933 23.2687 3.00233 23.312C2.93267 23.3512 2.77165 23.4128 2.77165 23.5007C2.77165 23.6814 2.7537 23.8729 2.77165 24.0524C2.79571 24.293 3.27988 24.2266 3.43304 24.2266C3.75146 24.2266 3.9938 24.3325 4.21703 24.5557C4.25293 24.5916 4.4775 24.7246 4.42029 24.8009C4.34751 24.898 4.07307 24.6985 4.16703 24.6928C4.63149 24.6647 4.97278 24.8897 5.40915 24.9816C5.66128 25.0347 5.87939 25.2067 6.09797 25.3316C6.32407 25.4608 6.05269 25.4206 5.92052 25.4171C5.79269 25.4138 5.94012 24.733 5.94956 24.6541C5.9972 24.2557 5.99473 23.856 5.99473 23.4555C5.99473 23.3546 5.99736 23.2009 6.14636 23.2474C6.31898 23.3014 6.43734 23.5212 6.5432 23.6524C6.78242 23.9488 6.906 24.2629 7.07554 24.5977C7.18928 24.8223 7.29791 25.0085 7.44979 25.2026C7.54449 25.3236 7.6446 25.3919 7.77887 25.4591C7.88467 25.512 8.00348 25.559 8.09828 25.6301C8.19393 25.7018 7.90146 25.6785 7.8676 25.6785C7.71991 25.6785 7.59668 25.6146 7.45302 25.6204C7.34242 25.6248 7.47535 25.7549 7.52238 25.7688C7.88505 25.8763 8.23342 26.0889 8.57255 26.2366C8.72052 26.3011 8.8241 26.4044 8.98874 26.4044C9.11788 26.4044 9.23494 26.4103 9.36299 26.427C9.70195 26.4712 10.0373 26.4625 10.3793 26.4625C10.644 26.4625 10.9072 26.4857 11.1697 26.4915C11.3358 26.4952 11.553 26.5252 11.6859 26.4044C11.7601 26.337 11.9615 26.234 12.0005 26.1431C12.0675 25.9867 12.185 25.9276 12.3086 25.8107C12.5387 25.5931 12.8873 25.5343 13.1668 25.3946C13.2072 25.3743 13.2609 25.3584 13.2959 25.3284C13.3129 25.3138 13.4012 25.1613 13.3975 25.1526C13.3671 25.0816 13.065 25.3495 13.0281 25.3946C12.9889 25.4424 12.9697 25.5888 12.9619 25.651C12.9504 25.743 12.8636 25.8047 12.849 25.8704C12.8263 25.9725 12.6526 26.0269 12.5425 26.0269C12.4728 26.0269 12.3425 26.0005 12.4312 25.8946C12.5174 25.7918 12.6724 25.7411 12.7684 25.6365C12.8834 25.5113 12.9752 25.3734 13.0652 25.23C13.1618 25.0761 13.2241 25.0883 13.3475 25.0106C13.4702 24.9334 13.5701 24.8413 13.6733 24.738C13.7308 24.6805 13.813 24.6773 13.8798 24.6331C13.9669 24.5756 14.0107 24.4999 14.1121 24.4589C14.2189 24.4158 14.2244 24.3375 14.2992 24.2702C14.3633 24.2125 14.3515 24.1533 14.3573 24.075C14.3644 23.9792 14.446 23.9254 14.3993 23.8185C14.3699 23.7514 14.3412 23.7348 14.267 23.733C13.905 23.7245 13.5418 23.733 13.1797 23.733C12.7371 23.733 12.2906 23.7176 11.8489 23.7508C11.548 23.7733 11.2544 23.841 10.9519 23.8475C10.5581 23.8561 10.1635 23.8492 9.7695 23.8492C9.58123 23.8492 9.20478 23.928 9.05326 23.8008C8.93533 23.7017 8.44582 22.9382 8.49189 22.9329C8.78186 22.8996 9.14729 23.0308 9.42106 23.1007C9.77854 23.1918 10.1306 23.2724 10.4954 23.3265" stroke="white" stroke-width="3" stroke-linecap="round" stroke-linejoin="round"/>
<path d="M16.6221 24.1685C16.6511 24.3038 16.7597 24.4396 16.7673 24.5751C16.7711 24.6445 16.7778 24.68 16.8124 24.7428C16.8556 24.8211 16.804 24.9103 16.8673 24.988C17.0299 25.1878 17.4061 25.0053 17.4061 25.3187C17.4061 25.4957 17.4061 25.2489 17.4061 25.1994C17.4061 25.0923 17.4061 24.9853 17.4061 24.8783C17.4061 24.7695 17.4238 24.6428 17.4044 24.5363C17.3857 24.4331 17.3227 24.3831 17.2899 24.2847" stroke="white" stroke-width="3" stroke-linecap="round" stroke-linejoin="round"/>
<path d="M16.8391 24.4641C16.8391 24.5354 16.7745 25.0864 16.8465 25.1584C16.8874 25.1993 17.1234 25.1658 17.1899 25.1658C17.3456 25.1658 17.4976 25.3192 17.6392 25.3811C17.7822 25.4437 17.511 25.4999 17.4405 25.4999" stroke="white" stroke-width="2" stroke-linecap="round" stroke-linejoin="round"/>
<path d="M16.564 25.1268C16.564 25.2581 16.5174 25.4374 16.6511 25.5042" stroke="white" stroke-linecap="round" stroke-linejoin="round"/>
<path d="M16.5161 25C16.8509 25 17.1635 25 17.5161 25" stroke="white" stroke-linecap="round" stroke-linejoin="round"/>
<path d="M18.5967 26.9561C18.8076 26.9644 18.7999 27.0141 18.9161 27.1303" stroke="white" stroke-linecap="round" stroke-linejoin="round"/>
<path d="M18.4513 26.4044C18.1863 26.4044 17.9181 26.4231 17.6608 26.4334C17.4407 26.4422 17.2411 26.3212 17.0398 26.2592C16.9173 26.2215 16.8433 26.1416 16.722 26.0979C16.6821 26.0836 16.5456 26.0244 16.5365 25.9834C16.5218 25.9171 16.558 25.8329 16.522 25.772C16.4594 25.6664 16.4682 25.5401 16.4478 25.4171" stroke="white" stroke-linecap="round" stroke-linejoin="round"/>
<path d="M19.3224 27.5659C19.3224 27.6416 19.3144 27.7226 19.3224 27.7982C19.3269 27.8409 19.3891 27.8758 19.4095 27.9143C19.4617 28.0129 19.543 28.0684 19.5966 28.1611C19.6794 28.3041 19.7337 28.4529 19.8192 28.5934C19.8651 28.6687 19.9356 28.7362 19.987 28.8096C20.029 28.8696 20.0035 28.9179 20.0257 28.9822C20.0428 29.0315 20.1511 29.1449 20.187 29.1919C20.2738 29.3054 20.3233 29.4372 20.4096 29.5565C20.5892 29.8044 20.7343 30.133 20.8387 30.4179C20.9304 30.6679 21.0698 30.9268 21.2001 31.1519C21.3401 31.3937 21.4818 31.6316 21.6163 31.8794C21.6782 31.9934 21.7615 32.0239 21.7615 32.1601C21.7615 32.1958 21.7533 32.2427 21.7905 32.2634C21.8699 32.3075 21.8572 32.3355 21.897 32.415C22.0109 32.6429 22.1242 32.5876 22.2261 32.4214C22.3053 32.2922 22.3985 32.1574 22.4696 32.023C22.5324 31.9045 22.5492 31.7484 22.5729 31.6181C22.5834 31.5601 22.5693 31.4993 22.5793 31.4406C22.5996 31.3223 22.6686 31.2249 22.6842 31.1019C22.7344 30.7068 22.7197 30.2861 22.7197 29.8872C22.7197 29.5665 22.7004 29.2371 22.6906 28.9145C22.679 28.5317 22.6616 29.68 22.6616 30.063C22.6616 30.3187 22.6616 30.0977 22.6616 29.9759C22.6616 29.8383 22.6616 29.7006 22.6616 29.5629C22.6616 29.357 22.6616 29.151 22.6616 28.9451C22.6616 28.8091 22.6616 28.673 22.6616 28.537C22.6616 28.2759 22.5689 28.662 22.539 28.7402C22.5052 28.8286 22.4437 28.8936 22.4003 28.9758C22.3639 29.0444 22.3754 29.1124 22.3567 29.1871C22.3431 29.2415 22.3238 29.4716 22.3712 29.2952C22.4751 28.9087 22.5096 28.5236 22.5777 28.1321C22.5965 28.0244 22.6186 27.8895 22.6487 27.782C22.7102 27.5626 22.8478 27.3837 22.91 27.1658C22.9859 26.9004 23.1247 26.5671 23.3456 26.3883C23.5249 26.2431 23.6419 26.0779 23.8634 25.9737C24.2589 25.7876 24.5749 25.4868 24.9813 25.3139C25.0735 25.2747 25.1863 25.2456 25.2685 25.1848C25.3256 25.1426 25.0949 25.1981 25.0813 25.2042C24.8238 25.3205 24.6415 25.5341 24.4167 25.6946C24.1585 25.879 23.8973 25.9547 23.615 26.0801C23.5498 26.1091 23.6866 25.9566 23.7247 25.8962C23.7838 25.8024 23.8585 25.6964 23.9328 25.6139C23.9943 25.5456 24.0697 25.4257 24.1489 25.3881C24.2712 25.33 24.3678 25.2816 24.5038 25.23C24.677 25.1643 24.8186 25.086 24.9942 25.0235C25.2296 24.9398 25.513 24.9228 25.7605 24.8816C25.9424 24.8513 26.0839 24.7835 26.2638 24.7348C26.307 24.7231 26.5285 24.6593 26.4993 24.6654C26.3526 24.6963 26.25 24.807 26.1202 24.8719C26.0866 24.8887 25.6483 25.1089 25.6363 25.0848C25.603 25.0182 25.7069 24.8432 25.7572 24.7928C25.8724 24.6777 26.1021 24.6997 26.2444 24.6477C26.3624 24.6045 26.4597 24.6144 26.5816 24.6009C26.6922 24.5886 26.7878 24.546 26.901 24.546C27.2815 24.546 27.6626 24.5395 28.0431 24.546C28.2084 24.5489 28.2197 24.6269 28.2431 24.7622C28.2577 24.8464 28.299 24.8788 28.3399 24.9461C28.3718 24.9987 28.3497 25.0869 28.3544 25.1461C28.3668 25.3009 28.4399 25.4539 28.4399 25.6059C28.4399 25.7539 28.461 25.8978 28.4915 26.043C28.5379 26.2631 28.4717 26.5024 28.4996 26.7254C28.5261 26.9375 28.527 27.1457 28.527 27.361C28.527 27.5231 28.4722 27.6684 28.4173 27.8207C28.3895 27.8981 28.3372 27.9815 28.2947 28.053C28.2471 28.1334 28.2547 28.2378 28.1786 28.3063C28.1179 28.3609 28.1179 28.4914 28.0786 28.5644C28.0542 28.6097 28.0642 28.6624 28.0479 28.7112C28.027 28.774 27.9706 28.812 27.9527 28.8725C27.9161 28.9972 27.9148 29.0825 27.8366 29.1919C27.7619 29.2965 27.7517 29.4702 27.6704 29.5678C27.5477 29.7151 27.4033 29.8485 27.2849 29.9888C27.1924 30.0984 26.9997 30.1668 26.8655 30.2243C26.7767 30.2624 26.6662 30.3243 26.5671 30.3243C26.5164 30.3243 26.4597 30.3989 26.3928 30.4147C26.2018 30.4596 26.0068 30.5622 25.8202 30.6244C25.6615 30.6773 25.5467 30.682 25.4201 30.7905C25.3267 30.8706 25.2443 30.931 25.1362 30.9696C25.07 30.9933 25.0479 31.0609 24.9942 31.0954C24.9527 31.1221 24.8868 31.1143 24.8394 31.1374C24.5958 31.2559 24.2901 31.3183 24.0263 31.3842C23.9171 31.4115 23.7673 31.4858 23.6585 31.4858C23.5252 31.4858 23.3918 31.4858 23.2585 31.4858C22.9474 31.4858 23.0118 30.9651 23.0101 30.7405C23.0051 30.1185 23.0101 29.4962 23.0101 28.8741C23.0101 28.5082 23.1618 28.1712 23.3149 27.8449C23.5285 27.3899 23.8181 26.9854 24.2006 26.6496C24.3935 26.4802 24.5832 26.3182 24.7684 26.1398C24.9111 26.0024 25.0888 25.9137 25.2459 25.7946C25.4031 25.6754 25.577 25.6044 25.7492 25.5107C25.9259 25.4146 26.0623 25.2843 26.2718 25.2736C26.4548 25.2642 26.5965 25.2093 26.7784 25.1703C26.8943 25.1455 27.1883 25.0556 27.2881 25.1623C27.3895 25.2706 27.411 25.5799 27.4527 25.7172C27.5204 25.9403 27.5488 26.1488 27.5753 26.3786C27.6127 26.7026 27.685 27.0034 27.685 27.332C27.685 27.6821 27.5968 27.9567 27.5107 28.2918C27.4386 28.5728 27.3377 28.8645 27.1494 29.0887C26.9093 29.3745 26.6746 29.6419 26.3799 29.8743C26.0381 30.1438 25.6725 30.3819 25.3201 30.6373C25.137 30.77 24.8714 30.9281 24.6522 30.9986C24.524 31.0399 24.3967 31.1023 24.2651 31.1309C24.2088 31.1431 24.1565 31.1309 24.1151 31.1793C24.0665 31.2359 23.9542 31.1882 23.9247 31.1358C23.7769 30.873 23.736 30.5316 23.736 30.2372C23.736 29.8959 23.709 29.5455 23.7876 29.2113C23.8207 29.0705 23.8065 28.9323 23.8295 28.7919C23.8573 28.6227 23.9821 28.4334 24.057 28.2805C24.1984 27.9918 24.4062 27.6604 24.6539 27.4513C24.8005 27.3275 24.9734 27.2489 25.1297 27.14C25.3648 26.9763 25.5408 26.7348 25.7524 26.5431C26.0418 26.2811 26.4092 26.0997 26.7493 25.9108C26.8822 25.837 27.1595 25.6329 27.0978 25.9108C26.9508 26.572 26.4451 27.0726 26.0283 27.5804C25.7358 27.9365 25.4147 28.2854 25.0491 28.5676C24.7999 28.76 24.4732 28.889 24.3361 29.1919C24.2506 29.3807 24.2098 29.5831 24.1586 29.7823C24.0991 30.0143 23.9827 30.2177 23.9699 30.4615C23.9665 30.5253 23.9683 30.5895 23.9683 30.6534C23.9683 30.6771 23.9985 30.617 24.0134 30.5986C24.138 30.4449 24.2828 30.309 24.3974 30.1469C24.6644 29.7691 24.8766 29.3154 25.0168 28.8757C25.13 28.5208 25.1001 28.1794 25.1426 27.8175C25.1582 27.6852 25.1989 27.5392 25.2749 27.4271C25.3667 27.2919 25.2971 27.5736 25.2927 27.5852C25.1394 27.9837 24.9083 28.3401 24.6877 28.7031C24.5627 28.909 24.3664 29.1634 24.3232 29.4065C24.3048 29.5098 24.3167 29.6227 24.3167 29.7275C24.3167 29.9659 24.7138 29.7024 24.7813 29.6436C25.0711 29.3911 25.2211 28.9965 25.4427 28.6886C25.7149 28.3104 26.0319 27.9675 26.2944 27.582C26.3574 27.4895 26.4074 27.388 26.4816 27.3045C26.4944 27.2901 26.488 27.2724 26.4783 27.3126C26.4314 27.5072 26.4209 27.7057 26.3654 27.8998C26.2179 28.4159 25.9831 28.9521 25.6363 29.3661C25.4209 29.6232 25.1623 29.7456 24.9007 29.934C24.7621 30.0337 25.2262 29.8148 25.362 29.7113C25.7701 29.4007 26.0947 28.9656 26.4332 28.5838C26.8014 28.1683 26.93 27.7947 26.93 27.2513C26.93 27.1796 26.9209 27.0996 26.9332 27.0287C26.9345 27.0213 26.9594 26.9321 26.9752 26.998C27.019 27.1815 26.9881 27.4021 26.9881 27.5884C26.9881 27.854 27.0382 28.1782 26.9623 28.437C26.9476 28.4869 26.8559 28.7328 26.8623 28.6886C26.9131 28.3366 27.0222 27.9903 27.1107 27.6465C27.1969 27.3115 27.2461 26.9537 27.3656 26.6286C27.4292 26.4553 27.468 26.1774 27.5866 26.0382C27.7613 25.833 27.9117 25.5985 27.9173 25.3203C27.918 25.2812 27.906 24.8013 27.8011 24.9848C27.7095 25.1451 27.692 25.3818 27.6559 25.5623" stroke="white" stroke-linecap="round" stroke-linejoin="round"/>
<path d="M20.1066 36.6253C19.9085 36.5816 19.7051 36.5228 19.5017 36.5108C19.35 36.5019 19.4083 36.4496 19.5259 36.3737C19.8175 36.1853 20.2597 36.0845 20.6002 36.1478C20.8856 36.2009 20.8615 36.0597 20.8615 35.8349C20.8615 35.7539 20.8678 35.6733 20.847 35.5945C20.8288 35.5253 20.7551 35.498 20.747 35.4332C20.7242 35.2511 20.5986 35.0829 20.5002 34.9283C20.4657 34.874 20.4616 34.8 20.455 34.7379C20.4457 34.6496 20.3743 34.5666 20.3518 34.4766C20.3243 34.3668 20.2551 34.2195 20.1921 34.1249C20.1398 34.0465 20.1099 33.9549 20.0582 33.8765C19.976 33.7519 19.8408 33.6779 19.7581 33.5539C19.7102 33.482 19.7441 33.3932 19.6952 33.32C19.653 33.2567 19.5655 33.1864 19.5033 33.1409C19.3906 33.0586 19.3 32.9157 19.1645 32.8731C19.0851 32.8482 19.0535 32.797 18.9887 32.7522C18.9431 32.7206 18.8872 32.7513 18.8516 32.7054C18.759 32.5863 18.5813 32.5159 18.4467 32.4553C18.2239 32.3551 17.9939 32.2849 17.774 32.1843C17.5848 32.0978 17.3108 32.0122 17.1029 31.9859C16.3947 31.8964 15.6805 31.9214 14.9639 31.9214C14.6601 31.9214 14.3562 31.9214 14.0524 31.9214C13.861 31.9214 13.5919 31.8728 13.4136 31.952C13.2914 32.0063 13.1888 32.0042 13.0571 32.0085C12.9797 32.011 12.8751 32.0742 13.0265 32.0069C13.2032 31.9283 13.384 31.8343 13.5798 31.8343C13.7787 31.8343 13.9777 31.8343 14.1766 31.8343C14.5884 31.8343 14.9782 31.9214 15.3865 31.9214C15.6529 31.9214 15.9413 31.8888 16.206 31.9278C16.2855 31.9396 16.5219 31.9795 16.4415 31.9795C16.3522 31.9795 16.263 31.9795 16.1737 31.9795C16.0069 31.9795 15.8563 31.8633 15.693 31.8633C15.5731 31.8633 15.4532 31.8633 15.3333 31.8633C15.1857 31.8633 15.0429 31.8343 14.8961 31.8343C14.8477 31.8343 14.4749 31.8315 14.6735 31.7246C15.0603 31.5163 15.4565 31.5729 15.8866 31.5729C16.0161 31.5729 16.1622 31.5547 16.2915 31.5746C16.4677 31.6017 16.534 31.6227 16.4189 31.7762" stroke="white" stroke-linecap="round" stroke-linejoin="round"/>
<path d="M14.2991 32.1246C13.9935 32.1288 13.6906 32.1537 13.3828 32.1537C13.2312 32.1537 13.0796 32.1537 12.9279 32.1537C12.6729 32.1537 12.4692 32.2117 12.2246 32.2763C11.9879 32.3388 11.8198 32.386 11.5809 32.386C11.3739 32.386 11.1669 32.386 10.9599 32.386C10.9167 32.386 10.7443 32.3935 10.7292 32.3408C10.7021 32.246 10.939 32.247 10.9889 32.2408C11.3348 32.1976 11.702 32.1506 12.0117 31.9859C12.2548 31.8566 12.6748 31.8052 12.9344 31.8052C13.5151 31.8052 14.0959 31.8052 14.6766 31.8052" stroke="white" stroke-linecap="round" stroke-linejoin="round"/>
<path d="M10.815 32.5021C10.6427 32.59 10.5424 32.6339 10.502 32.8312C10.4826 32.9261 10.4956 33.0316 10.4956 33.128C10.4956 33.2207 10.4755 33.3411 10.502 33.4313C10.5156 33.4775 10.5681 33.4952 10.5794 33.5377C10.6 33.6149 10.6061 33.7019 10.6246 33.7813C10.6674 33.9648 10.6464 34.1662 10.6762 34.354C10.6866 34.4194 10.7 34.578 10.7327 34.6379C10.8259 34.8087 10.9128 34.9757 11.0166 35.1573C11.1314 35.3583 11.2451 35.5902 11.3086 35.8123C11.3832 36.0736 11.7008 36.239 11.8312 36.4672C11.9045 36.5954 12.0521 36.6663 12.1571 36.764C12.2843 36.8825 12.3022 37.0096 12.4959 37.0625C12.5833 37.0863 12.6465 37.1811 12.7217 37.2286C12.8497 37.3095 12.9944 37.3279 13.125 37.3932C13.2228 37.4421 13.3169 37.5282 13.4154 37.5819C13.8924 37.8421 14.4292 37.7294 14.9156 37.9255C15.0852 37.9939 15.3161 38.0795 15.4963 38.1062C15.5584 38.1154 15.5914 38.1748 15.6528 38.1884C15.7336 38.2064 15.8283 38.1933 15.9109 38.1933C16.0685 38.1933 16.226 38.1933 16.3836 38.1933C16.5044 38.1933 16.6619 38.2196 16.7707 38.161C16.9477 38.0657 17.1309 38.0615 17.3063 37.9836C17.6122 37.8476 17.9393 37.774 18.2322 37.6255C18.4161 37.5322 18.6445 37.5557 18.8162 37.4641C18.932 37.4024 19.03 37.3358 19.155 37.2867C19.4329 37.1775 19.7082 36.9681 19.968 36.8189C20.1619 36.7075 20.3347 36.5792 20.5052 36.435C20.6014 36.3535 20.7165 36.3497 20.7165 36.2059C20.7165 35.9715 20.6068 35.8511 20.5019 35.6413C20.1394 34.9163 19.6875 34.2431 19.155 33.6313C18.9419 33.3865 18.6951 33.1911 18.4097 33.0409C17.9039 32.7747 17.4726 32.4834 16.8998 32.3714C16.4293 32.2795 15.9909 32.2698 15.5125 32.2698C14.9938 32.2698 14.4811 32.2337 13.9864 32.4118C13.7154 32.5093 13.4632 32.5863 13.1831 32.6537C12.7837 32.7499 12.3615 32.7479 11.97 32.8812C11.7586 32.9531 11.5104 33.132 11.4247 33.3571C11.3999 33.4223 11.3622 33.4035 11.3215 33.4442C11.2938 33.4718 11.3086 33.5553 11.3086 33.5894C11.3086 33.7593 11.3086 33.9292 11.3086 34.0991C11.3086 34.3619 11.4528 34.594 11.5667 34.8218C11.5857 34.8598 11.8 35.3039 11.8022 35.1283C11.8075 34.7066 11.8029 34.2412 11.5989 33.8587C11.5177 33.7065 11.5356 33.5862 11.4763 33.4313C11.422 33.2891 11.223 32.9307 11.0569 32.886C10.8722 32.8363 10.9877 33.7456 11.0118 33.8362C11.1231 34.255 11.3436 34.7133 11.5635 35.0864C11.9484 35.7395 12.6165 36.0982 13.2637 36.4382C13.8379 36.7398 14.4798 36.9948 15.1318 37.0383C15.9603 37.0935 16.816 37.0901 17.645 37.0544C17.8334 37.0463 18.0444 37.0557 18.229 37.0125C18.3573 36.9824 18.4499 36.8835 18.5742 36.8431C18.8154 36.7647 19.0412 36.6786 19.2066 36.4801" stroke="white" stroke-linecap="round" stroke-linejoin="round"/>
<path d="M19.2065 36.4801C19.0381 36.7631 18.7276 36.9065 18.4435 37.0625C17.935 37.3416 17.3203 37.5389 16.7367 37.5787C16.3568 37.6046 15.9752 37.6461 15.5962 37.669C15.4594 37.6773 15.2806 37.6935 15.1542 37.6351C14.8783 37.5078 14.6657 37.2072 14.4767 36.9834C14.0754 36.5081 13.668 36.0471 13.3056 35.5413C13.071 35.2139 12.8928 34.9531 12.7765 34.5734C12.7176 34.3814 12.6151 34.2084 12.6151 34.0056C12.6151 33.9345 12.7007 33.2356 12.5119 33.3345C12.4123 33.3867 12.3762 33.5204 12.3345 33.6152C12.2252 33.8631 12.1068 34.1109 12.0263 34.3701C11.9262 34.6929 11.9019 35.1252 11.9537 35.4622C11.9773 35.615 12.0451 35.7375 12.1925 35.7607C12.2646 35.772 12.3367 35.7913 12.4103 35.78C12.5433 35.7596 12.4985 35.5102 12.499 35.4219C12.5017 34.9015 12.4748 34.3833 12.47 33.8636C12.4693 33.7882 12.4462 33.6902 12.5232 33.6474C12.6777 33.5616 12.8519 33.5499 13.0249 33.5474C13.7113 33.5376 14.3985 33.5623 15.0849 33.5458C15.4631 33.5367 15.8422 33.4491 16.2173 33.4022C16.4906 33.3681 16.8792 33.2783 17.0771 33.5184C17.4023 33.9128 17.5523 34.4075 17.8885 34.7944C18.1079 35.0468 18.3313 35.2637 18.6257 35.4187C18.7795 35.4996 18.9168 35.6088 19.071 35.6897C19.1688 35.741 19.2892 35.7585 19.3807 35.8187C19.7663 36.0724 19.6088 35.4384 19.542 35.2541C19.282 34.5372 18.7232 34.1379 18.0999 33.7652C17.8095 33.5916 17.4906 33.4282 17.1787 33.2974C16.7853 33.1324 16.3408 32.9093 15.9156 32.857C15.4933 32.805 15.0327 32.8434 14.609 32.8505C14.1821 32.8577 13.7459 33.0029 13.354 33.1699C13.3239 33.1827 12.8642 33.3877 12.9539 33.4313C13.1359 33.5197 13.4662 33.4603 13.6556 33.4603C14.125 33.4603 14.5945 33.4603 15.0639 33.4603C15.4319 33.4603 15.8069 33.4428 16.1738 33.4797C16.6718 33.5298 17.1375 33.7312 17.5804 33.9539C17.9021 34.1157 18.2452 34.3068 18.4612 34.6056C18.6352 34.8463 18.7101 35.1535 18.8258 35.4235C18.9174 35.6373 18.9446 35.8486 19.021 36.0607C19.0347 36.0989 19.1153 36.212 19.029 36.1285C18.8425 35.9478 18.6515 35.7763 18.4435 35.6203C17.8532 35.1776 17.2538 34.8585 16.577 34.5702C16.3704 34.4821 16.1651 34.4035 15.9947 34.254C15.8019 34.0848 15.6093 33.9212 15.3898 33.7862C15.067 33.5876 14.5782 33.3128 14.1863 33.4797C13.9609 33.5757 13.7654 33.7359 13.5637 33.8717C13.315 34.039 13.0605 34.1978 12.8152 34.3701C12.6903 34.4578 12.7022 34.5019 12.7022 34.6444C12.7022 35.2158 13.5968 35.232 13.9895 35.2945C14.5105 35.3773 15.0334 35.4973 15.5382 35.651C15.9723 35.7831 16.3798 35.9858 16.8109 36.1268C17.1989 36.2537 17.5954 36.3488 18.0031 36.3801C18.1234 36.3894 18.4793 36.4597 18.5757 36.3382C18.6527 36.2411 18.6326 36.0482 18.6128 35.9381C18.5475 35.5749 18.1958 35.3458 17.9031 35.167C16.9262 34.5704 15.8077 34.4185 14.6897 34.4185C14.295 34.4185 13.9761 34.3667 13.7347 34.7153C13.5445 34.9901 13.4658 35.2954 13.8928 35.4154C14.2727 35.5223 14.7087 35.4936 15.0962 35.4735C15.5151 35.4518 16.2077 35.4861 16.548 35.1767C16.9539 34.8077 16.1832 34.4114 15.9205 34.3298C15.18 34.0998 14.4296 34.2749 13.946 34.8863C13.6076 35.3142 13.3935 36.1502 14.096 36.343C14.6719 36.501 15.3338 36.4977 15.9221 36.4301C16.3682 36.3789 17.036 36.2579 17.3675 35.9091C17.5782 35.6873 17.4701 35.3902 17.2513 35.2267C16.9293 34.986 16.4894 34.9198 16.0995 34.896C15.7099 34.8722 15.2538 34.8311 14.8784 34.9638C14.747 35.0102 14.4982 35.1163 14.4574 35.2735C14.2779 35.9643 15.8588 35.9316 16.1608 35.9252C16.5364 35.9172 17.4703 35.8716 17.1239 35.2541C16.7175 34.5297 15.5283 34.6624 14.959 35.0831C14.6508 35.311 14.525 35.715 15.0252 35.7478C15.4699 35.7769 15.9343 35.7605 16.377 35.7123C16.3993 35.7098 16.9684 35.6549 16.9287 35.5606C16.885 35.4569 16.4401 35.3015 16.4254 35.4606C16.383 35.9191 17.9514 35.8715 18.1966 35.8897C18.4729 35.9103 18.7507 35.9409 19.0242 35.9865C19.1203 36.0025 19.2127 36.0856 19.3 36.1252C19.5984 36.2606 19.9295 36.2991 20.2518 36.3349" stroke="white" stroke-linecap="round" stroke-linejoin="round"/>
<path d="M21.1807 36.5963C21.4111 36.7066 21.7477 36.7241 21.8905 36.9576C22.0082 37.1503 22.2854 37.2747 22.4938 37.3529C22.7299 37.4414 22.9741 37.5033 23.21 37.5819C23.2641 37.6 23.3746 37.6857 23.3746 37.6287C23.3746 37.5964 23.2438 37.5357 23.2132 37.5255" stroke="white" stroke-linecap="round" stroke-linejoin="round"/>
<path d="M22.2261 32.7054C22.2261 33.1001 22.2844 33.4258 22.5164 33.7507" stroke="white" stroke-linecap="round" stroke-linejoin="round"/>
<path d="M22.6909 32.2408C22.6909 32.5505 22.6909 32.8602 22.6909 33.17" stroke="white" stroke-linecap="round" stroke-linejoin="round"/>
<path d="M22.6908 34.012C22.6908 34.145 22.6801 34.2857 22.6908 34.4185C22.6976 34.5018 22.7788 34.5327 22.8005 34.6057C22.8187 34.6668 22.7992 34.7338 22.8134 34.796C22.8525 34.9669 22.865 35.1088 22.865 35.2896" stroke="white" stroke-linecap="round" stroke-linejoin="round"/>
<path d="M22.9521 34.3024C23.0561 34.6208 23.0393 34.93 23.0393 35.2606C23.0393 35.4935 23.0683 35.7297 23.0683 35.9575C23.0683 36.1321 23.1043 36.2979 23.2135 36.4398C23.2576 36.4971 23.2716 36.8645 23.2716 36.5608C23.2716 36.4005 23.2716 36.2403 23.2716 36.0801C23.2716 35.9617 23.2867 36.0611 23.3232 36.1252C23.3855 36.2349 23.3877 36.327 23.3877 36.4511C23.3877 36.6423 23.5038 36.7863 23.5038 36.9737C23.5038 37.1109 23.5333 37.267 23.5764 37.3964C23.6428 37.5955 23.623 37.8547 23.6474 38.0626C23.6608 38.1764 23.7361 38.2655 23.7361 38.3804C23.7361 38.4385 23.7361 38.4966 23.7361 38.5546C23.7361 38.6547 23.7361 38.7547 23.7361 38.8547C23.7361 38.9896 23.7942 39.0986 23.7942 39.2241C23.7942 39.5171 23.8703 39.7711 23.9104 40.0516" stroke="white" stroke-linecap="round" stroke-linejoin="round"/>
<path d="M24.4329 46.4397C24.488 46.1505 24.4329 45.8751 24.4329 45.5848C24.4329 45.4451 24.4532 45.2371 24.3684 45.1169C24.2893 45.0049 24.3168 44.8651 24.3168 44.7266C24.3168 44.0345 24.3168 43.3425 24.3168 42.6504C24.3168 42.3697 24.3168 42.0891 24.3168 41.8084C24.3168 41.6558 24.3504 41.4707 24.2458 41.347C24.1897 41.2807 24.2006 41.2251 24.2006 41.1389C24.2006 41.0599 24.1652 41.0068 24.1393 40.9357C24.0887 40.7964 24.1015 40.6957 24.0829 40.5469C24.0736 40.473 24.0264 40.4332 24.0264 40.3485C24.0264 40.2788 24.0113 40.2225 23.999 40.1549C23.9814 40.058 23.9974 40.0628 23.9974 40.1742C23.9974 40.2726 23.9974 40.3711 23.9974 40.4695C23.9974 40.5515 23.9562 40.8296 24.0264 40.8647" stroke="white" stroke-linecap="round" stroke-linejoin="round"/>
<path d="M57.6156 12.9532C57.4618 12.9532 57.1815 13.0042 57.0325 12.9446C56.7448 12.8295 56.5093 12.5794 56.1846 12.5302C56.1202 12.5205 55.9497 12.4475 55.9689 12.3615C55.9704 12.3547 56.5049 12.7745 56.5947 12.8165C56.8009 12.9127 56.7206 12.6679 56.6545 12.5687C56.5667 12.437 56.4279 12.32 56.2871 12.2483C56.2266 12.2175 56.1679 12.2305 56.1162 12.1842C55.9087 11.9985 55.6141 11.848 55.3473 11.7442C55.0996 11.6479 54.7177 11.7229 54.463 11.7229C54.1608 11.7229 53.7947 11.6477 53.5232 11.8083C53.3383 11.9177 53.0768 11.9981 52.9465 12.1757C52.827 12.3387 52.6786 12.5434 52.6176 12.7417C52.5275 13.0346 52.7156 12.7074 52.8013 12.6071C52.9679 12.4122 53.2854 12.2197 53.5318 12.1458C53.7051 12.0938 54.1625 12.1475 54.1918 11.913C54.2065 11.795 54.2639 11.7314 54.2708 11.6075C54.277 11.4969 55.0413 11.8302 55.1081 11.8596C55.3017 11.9449 55.5239 12.0027 55.6912 12.1372C55.9868 12.375 56.2394 12.691 56.5199 12.9489C56.7778 13.186 57.0339 13.3341 57.3529 13.4679C57.4185 13.4954 57.5027 13.5594 57.5729 13.5042C57.7678 13.3511 57.6841 12.7029 57.432 12.6157C57.2905 12.5667 57.0804 12.6071 56.9322 12.6071C56.8254 12.6071 57.1457 12.6071 57.2525 12.6071C57.477 12.6071 57.6303 12.6917 57.825 12.8079C57.984 12.9029 58.1989 12.9751 58.3376 13.0984C58.4031 13.1567 58.5025 13.2268 58.5789 13.265C58.7261 13.3386 58.7739 13.5497 58.8459 13.6794C58.954 13.8739 59.1246 14.0318 59.1834 14.2603C59.2328 14.4525 59.2892 14.6163 59.3265 14.8178C59.3556 14.975 59.3457 15.1369 59.3457 15.2963C59.3457 15.6064 59.3842 15.2205 59.3842 15.1147C59.3842 14.9388 59.3838 14.7821 59.3457 14.6106C59.3129 14.4627 59.2012 14.3829 59.1919 14.2219C59.1843 14.0899 59.0958 13.9026 59.0211 13.7904C58.8447 13.5259 58.7003 13.404 58.3675 13.4572C58.0975 13.5004 58.1539 13.7988 58.1539 13.9998C58.1539 14.5878 58.3527 14.9581 58.6836 15.4308C58.842 15.6571 58.7916 16.1571 59.1321 16.219C59.343 16.2573 59.3434 15.8455 59.3457 15.7213C59.3539 15.2832 59.4207 14.7956 59.2005 14.4013C59.1509 14.3125 59.0884 14.2241 59.0189 14.1493C58.8902 14.0107 58.9228 14.3952 58.9228 14.4248C58.9228 14.8044 58.8459 15.1764 58.8459 15.5526C58.8459 15.6789 58.8288 15.8045 58.8758 15.9221C58.9251 16.0452 59.1578 16.4475 59.3073 16.4817C59.5231 16.531 59.4953 16.1619 59.5572 16.0588C59.6037 15.9812 59.6903 15.9904 59.7686 15.9904C60.1594 15.9904 60.5305 16.2452 60.7682 16.5586C60.8821 16.7087 60.8948 16.8819 60.9968 17.0413C61.0656 17.1489 61.1485 17.2572 61.1933 17.3766C61.2455 17.516 61.2911 17.6464 61.3364 17.7889C61.3741 17.9073 61.2263 17.5644 61.1527 17.4642C60.9756 17.2232 60.7684 17.0407 60.5205 16.8747C60.3765 16.7783 60.2293 16.673 60.0549 16.6461C60.018 16.6405 59.7767 16.5613 59.7516 16.5757C59.62 16.6509 59.82 17.1412 59.8583 17.2143C60.0454 17.5707 60.4004 17.8114 60.7106 18.0516C60.8291 18.1433 61.0297 18.252 61.0374 18.4211C61.0413 18.5078 61.0447 18.8043 61.1912 18.797C61.3976 18.7867 61.4775 18.3335 61.7508 18.4766C61.9267 18.5688 61.9458 18.9842 61.9772 19.1601C62.0295 19.4535 62.037 19.7297 62.037 20.0273" stroke="white" stroke-linecap="round" stroke-linejoin="round"/>
<path d="M61.4189 29.8566C61.6975 29.7245 62.1954 29.4937 62.4851 29.3392C62.6257 29.2643 62.7867 29.1895 62.8644 29.0438C62.8963 28.984 62.9162 28.9458 62.9291 28.8813" stroke="white" stroke-linecap="round" stroke-linejoin="round"/>
<path d="M63.3693 28.9127C63.5039 29.1126 63.7207 29.4641 63.614 29.7307C63.5787 29.8191 63.5124 30.0244 63.4008 30.0453C63.2879 30.0665 63.3379 29.577 63.3379 29.4808C63.3379 29.2202 63.4151 28.795 63.24 28.5824C63.0712 28.3774 62.8504 28.1947 62.6579 28.0108C62.4638 27.8253 62.2749 27.6449 62.0689 27.4725C61.9726 27.3919 61.9199 27.3311 61.8906 27.2138" stroke="white" stroke-linecap="round" stroke-linejoin="round"/>
<path d="M48.8973 31.0521C48.8973 31.2447 48.9102 31.4424 48.8903 31.6341C48.8643 31.884 48.7404 32.1108 48.6596 32.3455C48.6231 32.4515 48.5838 32.5592 48.5529 32.6671C48.5199 32.7828 48.6431 32.4438 48.698 32.3368C48.7403 32.2543 49.2337 31.3536 49.3377 31.4576C49.4913 31.6112 49.4501 32.1216 49.3972 32.3106C49.3616 32.4376 49.309 32.5684 49.2189 32.6671C49.1457 32.7472 49.162 32.7257 49.2189 32.6444C49.3089 32.5158 49.3646 32.3798 49.4391 32.2441C49.4878 32.1555 49.4732 32.2721 49.4391 32.3176C49.3822 32.3934 49.4093 32.5006 49.3797 32.5867C49.3449 32.6879 49.2223 32.7224 49.1682 32.8139C49.1108 32.911 49.0545 33.0066 48.9847 33.0971C48.8493 33.2726 48.7191 33.3173 48.504 33.3173C48.2372 33.3173 47.9703 33.3173 47.7035 33.3173C47.6061 33.3173 47.5493 33.3802 47.4658 33.3802C47.2913 33.3802 47.1163 33.423 46.9362 33.4117C46.849 33.4063 46.6451 33.1895 46.6338 33.0988C46.6201 32.9893 46.6006 32.8957 46.6006 32.7825C46.6006 32.6544 46.6288 32.5676 46.6845 32.4539C46.7753 32.2686 46.7832 32.0639 46.8523 31.8666C46.9365 31.6259 46.9357 31.2958 47.0795 31.0801C47.1216 31.017 47.0906 31.069 47.0515 31.108C46.8872 31.2724 46.7936 31.4928 46.7299 31.7128C46.6513 31.9846 46.6608 32.2561 46.6006 32.5273C46.5902 32.574 46.5517 32.61 46.5447 32.6566C46.5299 32.7537 46.7485 32.7191 46.7963 32.7126C47.1419 32.6651 47.3903 32.3187 47.6371 32.1078C47.6568 32.0909 48.1289 31.6946 48.0723 31.6569C47.7635 31.451 47.3847 32.578 47.3277 32.7265C47.1328 33.2346 47.5375 32.8322 47.6493 32.6059C47.8839 32.1313 47.922 31.5699 47.922 31.0486C47.922 30.961 47.9184 30.8722 47.9237 30.7847C47.9286 30.7037 48.0065 30.5578 47.9709 30.7357C47.8779 31.2006 47.5759 31.6187 47.5759 32.1043C47.5759 32.2291 47.7377 32.0987 47.7856 32.0694C48.0622 31.9 48.3397 31.6803 48.5127 31.4017C48.6522 31.1772 48.7198 30.9196 48.8343 30.6833C48.85 30.6511 49.0702 30.3137 48.8833 30.4071C48.5577 30.57 48.2995 30.9399 48.2995 31.3038" stroke="white" stroke-linecap="round" stroke-linejoin="round"/>
<path d="M47.6071 33.2544C47.3637 33.3488 47.4026 33.5166 47.275 33.7193C47.1762 33.8763 47.0748 34.0319 47.0233 34.2122C46.983 34.3533 46.852 34.4791 46.852 34.6265C46.852 34.746 46.6913 35.0686 46.7646 34.9743C46.8906 34.8124 46.9567 34.6294 47.0251 34.4394C47.0556 34.3546 47.1824 34.2819 47.2436 34.2087C47.3116 34.1273 47.5476 33.9438 47.4428 33.9605C47.3149 33.981 47.2437 34.2133 47.1981 34.3101C47.0963 34.526 47.0287 34.7511 46.88 34.9411C46.7868 35.0601 46.7493 35.2124 46.6213 35.2976C46.5069 35.3739 46.4049 35.5342 46.3172 35.6385C46.2127 35.7627 46.1713 35.9191 46.0655 36.037C45.9662 36.1476 45.8393 36.261 45.7544 36.3813C45.6515 36.527 45.6001 36.6152 45.5604 36.7938C45.5407 36.8824 45.5606 36.8658 45.6285 36.7886C45.7941 36.6004 45.966 36.4087 46.1075 36.2013C46.1907 36.0792 46.2034 35.952 46.3102 35.8412C46.3821 35.7667 46.4375 35.6998 46.5182 35.6315C46.704 35.4742 46.3969 36.0583 46.3661 36.1104C46.2984 36.2251 46.2543 36.2547 46.2543 36.3935C46.2543 36.4555 46.2545 36.4939 46.2228 36.5474C46.1332 36.6986 46.081 36.8778 45.9834 37.028C45.9257 37.1167 45.8323 37.1563 45.8121 37.2675C45.7938 37.3677 45.7109 37.4338 45.653 37.5087C45.5898 37.5905 45.5719 37.6904 45.4992 37.7674C45.4036 37.8686 45.4022 38.0265 45.3104 38.1117C45.1159 38.2923 45.0438 38.6395 44.9713 38.886C44.8703 39.2295 44.643 39.5779 44.447 39.863C44.3708 39.9738 44.2158 40.138 44.1778 40.2616C44.1456 40.3664 44.1373 40.4717 44.038 40.536C43.9534 40.5907 43.9622 40.7321 43.8877 40.8121C43.7762 40.9318 43.7078 41.1327 43.5783 41.2299C43.4406 41.3331 43.406 41.5518 43.2724 41.6546C43.1671 41.7356 43.1588 41.8838 43.0837 41.9867C43.0231 42.0697 43.0069 42.0841 42.9753 42.1825C42.9199 42.3547 42.7894 42.5378 42.6974 42.6911C42.6162 42.8263 42.5498 43.0012 42.4649 43.1263C42.4136 43.2019 42.3518 43.2726 42.2971 43.3535C42.2546 43.4164 42.2448 43.5228 42.1783 43.558C42.0734 43.6135 41.9994 43.803 41.9266 43.9023C41.8115 44.0592 41.7254 44.226 41.612 44.3848C41.4963 44.5466 41.3865 44.676 41.2537 44.82C41.1517 44.9304 41.0824 45.0647 40.9688 45.1783" stroke="white" stroke-linecap="round" stroke-linejoin="round"/>
<path d="M41.2519 44.8008C41.1549 44.8586 40.9328 44.9604 40.8744 45.0699C40.8215 45.1691 40.7079 45.2712 40.6891 45.3793C40.6571 45.5631 40.491 45.7381 40.4025 45.9054C40.3391 46.0251 40.1651 46.2021 40.0704 46.2969C39.9698 46.3975 39.9173 46.5159 39.8519 46.6395C39.7957 46.7456 39.6412 46.7932 39.6177 46.9226C39.6063 46.9854 39.4914 47.0894 39.4516 47.1534C39.3765 47.2741 39.2738 47.2941 39.2244 47.419C39.1838 47.5217 39.1032 47.5541 39.0496 47.6393C38.9831 47.7449 38.8985 47.863 38.7979 47.9399C38.4988 48.1687 38.2081 48.4559 37.8855 48.653C37.6707 48.7843 37.4574 48.9623 37.2738 49.1284C37.0498 49.3311 36.7818 49.4885 36.5519 49.6913C36.4093 49.8171 36.2949 49.9598 36.1726 50.1072C36.0953 50.2006 36.0032 50.2189 35.9524 50.3205C35.9015 50.4223 35.8238 50.4946 35.7462 50.5722C35.6156 50.7027 35.463 50.8451 35.463 51.0423C35.463 51.136 35.3563 51.1362 35.3372 51.2224C35.3214 51.2931 35.2491 51.4784 35.1781 51.502C35.0307 51.5512 35.0074 51.7727 34.8897 51.8621C34.7623 51.959 34.7245 52.1229 34.5821 52.2012C34.4229 52.2888 34.2244 52.4206 34.0962 52.5403C33.9484 52.6782 33.7143 52.7366 33.5474 52.8619C33.2378 53.094 32.9154 53.3236 32.6804 53.6257C32.6323 53.6876 32.5846 53.7467 32.5371 53.8092C32.5038 53.853 32.4277 53.9512 32.3798 53.9805C32.2714 54.0467 32.2303 54.1965 32.1281 54.2776C32.0193 54.3641 31.9316 54.44 31.796 54.4839C31.6683 54.5252 31.5707 54.7192 31.4202 54.7723C31.2704 54.8251 31.1699 54.9138 31.0287 54.975C30.9657 55.0023 30.8446 55.0399 30.8067 55.1061C30.652 55.3769 30.3857 55.6267 30.1338 55.8123C30.0675 55.8611 29.9829 55.8577 29.9258 55.9066C29.8183 55.9988 29.6999 56.0766 29.5622 56.1199C29.4881 56.1432 29.4447 56.2445 29.377 56.2527C29.2827 56.2641 29.2446 56.3146 29.1707 56.3716C28.8192 56.6428 28.4687 56.806 28.1342 57.0987C28.0196 57.199 27.9235 57.2875 27.8179 57.3993C27.7807 57.4386 27.7813 57.5058 27.7165 57.5112C27.6656 57.5154 27.6184 57.564 27.5977 57.6056" stroke="white" stroke-linecap="round" stroke-linejoin="round"/>
<path d="M36.187 49.3941C36.2405 49.0396 36.2848 48.6824 36.4317 48.3559C36.5178 48.1647 36.5736 47.9539 36.6589 47.7581C36.7097 47.6416 36.8018 47.4743 36.8145 47.3474C36.8269 47.2234 36.8243 47.0933 36.8547 46.9716C36.8916 46.8239 36.9735 46.7418 36.9735 46.5801C36.9735 46.4716 37.0037 46.3614 37.0435 46.2619C37.1283 46.05 37.0679 45.7223 37.0679 45.4929C37.0679 45.2342 37.1312 44.8848 37.0435 44.6434C37.0287 44.6029 37.0329 44.5539 37.0033 44.6452C36.9472 44.8179 36.9589 45.001 36.9106 45.1748C36.866 45.3356 36.8792 45.5019 36.8792 45.6677C36.8792 45.8964 36.8477 46.1142 36.8477 46.3424" stroke="white" stroke-linecap="round" stroke-linejoin="round"/>
<path d="M41.7554 44.8008C42.1139 44.7257 42.3585 44.4252 42.6887 44.2799C42.7885 44.236 42.9315 44.2105 43.0208 44.1576C43.1686 44.07 43.3446 43.9692 43.5137 43.9338C43.6324 43.909 43.7403 43.9365 43.8511 43.8884C43.9455 43.8473 44.0625 43.8421 44.1639 43.8237C44.3859 43.7834 44.6207 43.6682 44.8543 43.6682C44.9427 43.6682 45.0343 43.6752 45.1217 43.6612C45.2359 43.6429 45.2277 43.5448 45.3105 43.5423C45.4137 43.5392 45.4562 43.523 45.5465 43.4829C45.6408 43.441 45.7708 43.4879 45.8751 43.4462C46.0916 43.3596 46.2828 43.2346 46.506 43.1543C46.6676 43.0961 46.9011 43.1102 47.0479 43.0249C47.2907 42.884 47.5753 42.7872 47.8589 42.7872" stroke="white" stroke-linecap="round" stroke-linejoin="round"/>
<path d="M52.0119 42.1265C50.9489 41.8267 50.2538 43.2902 50.0176 44.1016C49.9858 44.2106 49.8178 44.6168 50.0088 44.6924C50.3739 44.8368 50.8031 44.5252 51.082 44.3393C51.746 43.8967 52.4456 43.555 53.1725 43.2277C53.4806 43.0889 53.7969 42.9572 54.0918 42.7907C54.1457 42.7603 54.314 42.6804 54.3103 42.588C54.3023 42.3874 53.5623 42.4411 53.4276 42.4411" stroke="white" stroke-width="4" stroke-linecap="round" stroke-linejoin="round"/>
<path d="M49.0545 42.3153C48.7327 42.278 48.3529 42.2368 48.0303 42.2891C47.7077 42.3414 47.4886 42.7159 47.3311 42.969C47.2538 43.0933 47.3693 42.9065 47.3836 42.8886C47.5341 42.6994 47.7332 42.5222 47.9604 42.4324C48.1079 42.3741 48.2487 42.4056 48.3938 42.359C48.587 42.2969 48.7643 42.0561 48.9392 41.9395C49.0763 41.8481 48.6057 42.0535 48.5127 42.1895C48.4437 42.2903 48.4001 42.2818 48.4323 42.137C48.4811 41.9173 48.7281 41.6546 48.9531 41.6546C49.2678 41.6546 49.5537 41.6446 49.855 41.5585C49.8721 41.5536 49.9094 41.5268 49.9215 41.5148C50.0059 41.4303 49.6857 41.5576 49.6663 41.5637C49.5879 41.5886 49.4796 41.6808 49.4006 41.6861C49.3594 41.6888 49.4251 41.6593 49.4356 41.6511C49.5271 41.5799 49.6015 41.4839 49.6995 41.4221C49.7936 41.3629 49.9021 41.2771 50.0158 41.2771C50.1114 41.2771 50.1769 41.2142 50.2885 41.2142C50.491 41.2142 50.746 41.1691 50.9405 41.2299C51.1987 41.3106 51.4869 41.3449 51.7497 41.4169C52.0427 41.4972 52.3416 41.5388 52.6237 41.6476C52.836 41.7295 53.0221 41.7683 53.19 41.9185C53.3314 42.0451 53.4851 42.1412 53.6129 42.2873C53.7344 42.4261 53.8154 42.5813 53.9625 42.6998C54.1158 42.8233 54.2813 42.8918 54.4379 43.0057C54.4977 43.0492 54.5752 43.059 54.6302 43.1088C54.7327 43.2017 54.8189 43.3129 54.9308 43.3955C55.0881 43.5115 55.244 43.6442 55.4097 43.7485C55.5021 43.8067 55.8062 43.9236 55.6142 44.0771C55.4007 44.248 55.7558 44.2196 55.7558 44.1715" stroke="white" stroke-width="4" stroke-linecap="round" stroke-linejoin="round"/>
<path d="M55.4728 44.612C55.4103 44.7006 55.3957 44.7988 55.333 44.8794C55.2892 44.9357 55.2302 44.9884 55.1966 45.0524C55.0929 45.2505 54.8858 45.2745 54.6863 45.3111C54.585 45.3297 54.607 45.3899 54.5429 45.4265C54.4875 45.4582 54.414 45.4729 54.3646 45.5174C54.2683 45.604 54.2622 45.6738 54.1199 45.6817C54.0098 45.6878 53.8936 45.783 53.7913 45.8198C53.657 45.8681 53.4804 45.839 53.3404 45.839C53.1417 45.839 52.8792 45.8995 52.7112 46.0138C52.4819 46.1696 52.867 46.2088 53.0048 46.0907C53.0756 46.03 52.9602 46.0839 52.9349 46.0907C52.7998 46.1267 52.6822 46.1806 52.5399 46.1851C52.2982 46.1926 52.0894 46.2794 51.8477 46.2794C51.5424 46.2794 51.2371 46.2794 50.9319 46.2794C50.7493 46.2794 50.5869 46.2517 50.4145 46.192C50.3275 46.1619 50.2531 46.1143 50.182 46.0575C50.0551 45.9559 49.9004 45.9311 49.7783 45.8215C49.6342 45.6922 49.4179 45.5997 49.2539 45.4929C49.0105 45.3344 48.7386 45.2255 48.5023 45.0524C48.2273 44.851 48.063 44.4919 47.7508 44.3358C47.6065 44.2637 47.4477 44.195 47.2911 44.1558C47.2042 44.1341 46.985 44.1111 46.9293 44.0387C46.8659 43.9564 46.8319 43.843 46.7632 43.7538C46.7438 43.7285 46.5972 43.7131 46.5972 43.745C46.5972 43.8146 46.7426 43.768 46.7562 43.8429C46.7693 43.9148 46.7439 44.0074 46.8209 44.0527C46.8958 44.0968 46.812 43.8934 46.8891 43.9897C46.9765 44.0991 47.0633 44.1734 47.1285 44.2974C47.2426 44.5142 47.4205 44.6824 47.6389 44.7938C47.7357 44.8431 47.8655 44.903 47.971 44.9231C48.1091 44.9494 48.0947 44.955 48.2052 45.0455C48.2656 45.0948 48.313 45.1541 48.3468 45.2255C48.4097 45.3584 48.1951 45.371 48.1563 45.2832C48.0925 45.1388 48.146 45.0065 47.9692 44.9248C47.8394 44.8649 47.7326 44.795 47.583 44.8008C47.4832 44.8046 47.6462 44.9252 47.6686 44.9406C47.7508 44.9971 47.7616 45.1317 47.8347 45.1713C48.0035 45.2627 48.0729 45.5521 48.2681 45.6118C48.3529 45.6376 48.4016 45.6817 48.4918 45.6817C48.5662 45.6817 48.6819 45.6896 48.74 45.7446C48.8726 45.8698 48.9752 46.0351 49.1211 46.1466C49.3471 46.3194 49.6316 46.3009 49.9111 46.3109C50.0758 46.3168 50.2458 46.3363 50.4145 46.3424C50.5007 46.3454 50.5625 46.4142 50.6435 46.4333C50.7385 46.4556 50.8586 46.4367 50.9563 46.4367C51.1509 46.4367 51.3455 46.4367 51.5401 46.4367C51.6912 46.4367 51.7556 46.3859 51.8862 46.3424" stroke="white" stroke-width="4" stroke-linecap="round" stroke-linejoin="round"/>
<path d="M34.5822 38.5399C34.2639 37.3828 33.8177 36.2747 33.5474 35.1036C33.5212 34.99 33.4437 34.9001 33.4251 34.782C33.3964 34.6006 33.4181 34.4025 33.4181 34.2192C33.4181 34.0275 33.4762 33.7401 33.4006 33.5673C33.316 33.374 33.3039 33.1285 33.2538 32.9223C33.204 32.7175 33.104 32.5285 33.0563 32.328C33.0192 32.1722 33.0135 31.9675 33.0091 31.8072C33.0028 31.5828 33.0532 31.3573 32.8203 31.2409" stroke="white" stroke-width="4" stroke-linecap="round" stroke-linejoin="round"/>
<path d="M33.6071 31.5869C33.287 31.5389 33.2081 32.0497 33.1212 32.2721C33.0624 32.4226 32.9278 32.913 32.728 32.938C32.6031 32.9536 32.6743 32.3582 32.6616 32.2179C32.6459 32.046 32.6278 31.6376 32.3627 31.7512C32.0558 31.8827 32.091 32.3556 32.0271 32.6112C31.9504 32.918 31.8383 33.2392 31.6268 33.4904C31.5377 33.5962 31.4674 33.8298 31.4048 33.611C31.3652 33.4723 31.3011 33.2038 31.4678 33.1443C31.4876 33.1372 31.5809 33.0935 31.5901 33.1233C31.6201 33.2209 31.6059 33.3984 31.5866 33.4991C31.5417 33.7339 31.381 33.9243 31.3349 34.1598C31.2797 34.4421 31.1615 34.7037 31.0972 34.9848C31.0643 35.1287 31.106 35.2556 31.043 35.3955C30.977 35.5424 30.9532 35.7554 30.9347 35.9129C30.9012 36.1973 30.9138 36.5346 30.9644 36.813C30.995 36.9815 31.0718 37.1132 31.0972 37.2815C31.1222 37.447 31.1846 37.6132 31.1846 37.7778C31.1846 38.0132 31.1846 38.2486 31.1846 38.484C31.1846 38.8333 31.218 39.0944 31.3611 39.4138C31.4513 39.6151 31.542 39.8718 31.6723 40.0501C31.7358 40.137 31.7963 40.1976 31.8628 40.2773C31.9047 40.3276 31.9328 40.4285 31.9921 40.4608C32.1345 40.5385 32.1898 40.6775 32.2858 40.7981C32.349 40.8776 32.4289 40.9627 32.5095 41.0254C32.5818 41.0816 32.683 41.0847 32.7402 41.1582C32.8532 41.3035 33.0184 41.4001 33.1667 41.5043C33.2533 41.5652 33.3565 41.5927 33.4324 41.6686C33.507 41.7432 33.578 41.8051 33.6701 41.8573C33.7226 41.8871 33.7594 41.9357 33.8029 41.9762C33.9069 42.073 34.0449 42.1182 34.1665 42.1877C34.2977 42.2627 34.5183 42.4162 34.5964 42.5512C34.6923 42.7168 34.8805 42.7147 35.0526 42.74C35.1505 42.7544 35.2699 42.739 35.362 42.7767C35.4791 42.8247 35.5553 42.8675 35.6818 42.8833C35.7913 42.897 35.8867 43.06 35.9842 43.1088C36.0327 43.133 36.1009 43.2754 36.131 43.3221C36.2292 43.4738 36.2192 43.0748 36.2254 43.0459C36.2434 42.962 36.3133 42.8202 36.3583 42.7488C36.4367 42.6242 36.5782 42.4527 36.6204 42.3153C36.6531 42.2092 36.6677 42.147 36.7218 42.0496C36.7565 41.9872 36.7986 41.9284 36.818 41.8608C36.8374 41.7929 36.8791 41.9479 36.8791 41.9622C36.8791 42.0657 36.8111 42.0928 36.7708 42.1772C36.7036 42.3177 36.6142 42.4351 36.5942 42.5845C36.5801 42.6908 36.4726 42.8041 36.6204 42.6124C36.704 42.5042 36.7937 42.3737 36.8477 42.2524C36.8782 42.1836 36.8589 42.1115 36.8826 42.0461C36.9125 41.9641 36.9797 41.8661 37.0294 41.7944C37.1217 41.6615 37.1135 41.5271 37.2427 41.4274C37.3656 41.3326 37.4819 41.1853 37.5258 41.0411C37.5698 40.8968 37.6657 40.8225 37.6657 40.6671C37.6657 40.56 37.5871 40.8664 37.5398 40.9624C37.4868 41.0699 37.4636 41.1458 37.4419 41.2596C37.43 41.3222 37.3825 41.3435 37.3825 41.4099C37.3825 41.4752 37.3904 41.5457 37.365 41.6074C37.3061 41.7506 37.3748 41.9275 37.2252 41.9832C37.0697 42.0411 37.0395 42.1488 36.949 42.2594C36.8404 42.3921 36.8795 42.5495 36.7987 42.6858C36.7358 42.7921 36.8125 42.8824 36.6904 42.983C36.5877 43.0675 36.5358 43.1473 36.4998 43.2731C36.4517 43.4417 36.5045 42.9204 36.54 42.7488C36.6361 42.2856 36.8129 41.8598 37.1116 41.4903C37.3201 41.2323 37.4467 41.0144 37.5084 40.6863C37.5414 40.5104 37.615 40.3897 37.6971 40.2371C37.7713 40.0993 37.8345 39.9796 37.8719 39.8298C37.8929 39.7458 37.9371 39.696 37.9785 39.6236C38.0266 39.5396 38.0154 39.4325 38.0432 39.3404C38.1159 39.0996 38.0747 38.8149 38.0747 38.5644C38.0747 38.1472 38.0747 37.7301 38.0747 37.3129" stroke="white" stroke-width="4" stroke-linecap="round" stroke-linejoin="round"/>
<path d="M38.1062 37.3759C38.2114 37.7047 38.2635 38.0053 38.2635 38.3529C38.2635 38.4729 38.2635 38.5929 38.2635 38.713C38.2635 38.8387 38.3146 38.9139 38.3421 39.0293C38.3866 39.2162 38.3777 39.4785 38.3561 39.6725C38.3427 39.7931 38.2912 39.9206 38.2582 40.0361C38.2336 40.1223 38.1526 40.1645 38.1359 40.2563C38.1247 40.3179 38.0747 40.3319 38.0747 40.3962C38.0747 40.5826 38.0747 40.0233 38.0747 39.8368C38.0747 39.6411 38.0903 39.4777 38.1306 39.288C38.1727 39.0904 38.2608 38.9087 38.2635 38.7042C38.2666 38.4608 38.2635 38.2171 38.2635 37.9736C38.2635 37.8272 38.3773 37.811 38.4138 37.6835C38.4384 37.5974 38.4283 37.5015 38.4505 37.4126C38.4817 37.2876 38.4522 37.6701 38.4522 37.7988C38.4522 37.9712 38.4277 38.1649 38.454 38.3354C38.4815 38.5146 38.5152 38.3333 38.5152 38.255C38.5152 38.1362 38.5152 38.0173 38.5152 37.8985C38.5152 37.6887 38.5152 37.479 38.5152 37.2692C38.5152 36.8955 38.2366 36.4594 38.0729 36.1593C37.9773 35.984 37.9372 35.8393 37.9156 35.6455C37.888 35.3966 37.7747 35.1706 37.6535 34.9551C37.6044 34.8678 37.6221 34.7929 37.5468 34.7086C37.4817 34.6357 37.4416 34.5221 37.3825 34.4395C37.272 34.2846 37.1334 34.1175 37.0435 33.9466C36.9326 33.7359 36.7599 33.5092 36.582 33.3313C36.3788 33.1281 36.0022 33.0291 35.7466 32.9083C35.5555 32.8181 35.3971 32.6679 35.2292 32.5448C35.0234 32.3939 34.8359 32.2366 34.6279 32.0868C34.4068 31.9276 34.2716 31.9 34.0162 31.8544C33.8609 31.8267 33.7309 31.7839 33.5792 31.7425C33.5275 31.7284 33.4581 31.6641 33.4009 31.6883C33.2622 31.7472 33.5422 32.2276 33.5617 32.2651C33.9529 33.0158 34.4646 33.7111 34.7083 34.5303C34.8742 35.0879 35.0768 35.6434 35.369 36.1489C35.5059 36.3856 35.8004 36.6121 35.8339 36.8934C35.8559 37.0776 35.8348 37.2661 35.8444 37.451C35.8532 37.6207 35.9061 37.7758 35.9283 37.9422C36.0655 38.9712 35.711 39.9502 35.5508 40.9485C35.52 41.1403 35.4949 41.3255 35.4949 41.52C35.4949 41.5685 35.5143 41.6718 35.4879 41.7175C35.4367 41.8059 35.252 41.6606 35.2204 41.6354C34.9581 41.4255 34.8113 41.1026 34.6978 40.7947C34.4634 40.1583 34.2946 39.5115 34.2364 38.8371C34.2117 38.5512 34.2146 38.2667 34.1997 37.9806C34.1702 37.4154 34.0036 36.8483 33.8309 36.3132C33.6309 35.6935 33.3487 35.1186 33.0601 34.5373C32.9041 34.2232 32.7394 33.9383 32.4955 33.6844C32.4105 33.5959 32.3252 33.4589 32.319 33.6564C32.3087 33.9872 32.2731 34.3093 32.2438 34.6387C32.1869 35.2789 32.2122 35.9394 32.2229 36.5823C32.231 37.0757 32.3478 37.6303 32.4885 38.0995C32.6572 38.6617 32.8796 39.2222 33.1912 39.7215C33.3494 39.9751 33.3993 40.0815 33.7016 40.0815" stroke="white" stroke-width="4" stroke-linecap="round" stroke-linejoin="round"/>
<path d="M52.5288 20.119C52.5938 19.807 52.6605 19.4943 52.7501 19.1883C52.974 18.4234 53.2148 17.66 53.4855 16.9104C53.6169 16.5467 53.74 16.1827 53.9867 15.882C54.1641 15.6658 54.4064 15.4172 54.4618 15.1401" stroke="white" stroke-width="4" stroke-linecap="round" stroke-linejoin="round"/>
<path d="M54.4619 15.1401C54.3523 15.3046 53.5833 16.0443 53.5833 15.5241C53.5833 15.0868 53.8169 14.7698 54.0389 14.4111C54.1066 14.3017 54.2734 13.9933 54.4034 13.9686C54.7746 13.8979 55.2459 14.4199 55.5293 14.5869C55.7896 14.7402 56.0718 14.8191 56.3363 14.9513C56.6252 15.0958 56.236 14.9862 56.1086 14.9611C55.3317 14.8083 54.5372 14.8472 53.7493 14.8472C53.3148 14.8472 52.9273 14.9367 52.4996 14.9611C52.3403 14.9702 51.5961 15.0612 51.5397 14.7789C51.5076 14.6184 51.5991 14.3533 51.5006 14.2126C51.4404 14.1266 51.3924 14.0734 51.3574 13.9686" stroke="white" stroke-width="4" stroke-linecap="round" stroke-linejoin="round"/>
<path d="M51.0674 14.3015C51.0772 14.4405 51.0893 14.5788 51.0893 14.7182C51.0893 14.7625 51.0667 14.8807 51.0942 14.9107C51.1731 14.9967 51.177 14.798 51.177 14.7742C51.177 14.6938 51.177 14.6134 51.177 14.533C51.177 14.4499 51.1395 13.8848 51.2209 13.8848" stroke="white" stroke-width="4" stroke-linecap="round" stroke-linejoin="round"/>
<path d="M48.6285 15.8438C48.4424 15.8365 48.2119 15.7609 48.0451 15.6775C48.0027 15.6563 47.9902 15.5413 48.0134 15.5006C48.0189 15.491 48.1387 15.4707 48.0662 15.4901C47.9626 15.5177 47.8583 15.5583 47.7626 15.6062C47.6381 15.6685 47.5593 15.8206 47.5593 15.9613C47.5593 16.0566 47.5558 16.1149 47.5131 16.2003C47.4767 16.273 47.5127 16.3667 47.4405 16.4141C47.3809 16.4532 47.3606 16.5737 47.3217 16.6385C47.2642 16.7343 47.1726 16.7827 47.1567 16.9025C47.0876 17.4202 47.0592 17.9439 47.0841 18.4708C47.0918 18.6343 47.2237 18.6535 47.3679 18.6662C47.8199 18.7058 48.2784 18.5681 48.6972 18.4127C49.2193 18.219 49.6635 17.9403 50.1163 17.6233C50.3597 17.4529 50.6084 17.2663 50.8687 17.1217C51.0015 17.0479 51.0297 17.1508 51.0416 17.2748C51.0884 17.7619 51.0363 18.271 50.9994 18.7559C50.9541 19.3513 50.8697 19.9429 50.8251 20.538C50.8154 20.6681 50.7672 20.8219 50.8859 20.8812" stroke="white" stroke-width="4" stroke-linecap="round" stroke-linejoin="round"/>
<path d="M52.7056 22.4192C52.7161 22.4204 52.7316 22.4317 52.7373 22.4227C52.8488 22.2451 53.1624 21.5356 53.1886 21.4778C53.2811 21.2744 53.5643 20.3236 53.8268 20.1661C54.1132 19.9943 54.4273 19.9288 54.673 19.6831C54.8462 19.5099 54.9792 19.322 55.2442 19.3093C55.3905 19.3024 55.5183 19.2995 55.6321 19.1824C55.8265 18.9824 55.893 18.6676 56.1046 18.4561C56.3711 18.1895 56.7657 18.056 56.9755 17.7332C57.0988 17.5435 57.0213 17.1476 57.0213 16.9293C57.0213 16.6617 57.743 16.9278 57.8323 16.9963C58.002 17.1265 57.9571 17.1804 57.9804 17.3842C58.0104 17.6472 58.1647 17.85 58.2272 18.0999C58.2922 18.36 58.5487 18.7423 58.7349 18.9285C58.9268 19.1204 59.2024 19.0954 59.3696 19.2459C59.5834 19.4383 59.8091 19.6525 60.0677 19.7818C60.1594 19.8276 60.2512 19.8142 60.3498 19.8171C60.6313 19.8253 60.4951 19.879 60.4133 20.0427C60.2292 20.4109 60.468 20.9986 60.0642 21.3015C59.9205 21.4093 59.8079 21.4964 59.7363 21.6576C59.6415 21.8709 59.4965 21.8734 59.4965 22.1336C59.4965 22.2831 59.3882 22.5795 59.292 22.6872C59.1848 22.8073 58.9983 23.0427 58.9888 23.209C58.9817 23.3335 59.0221 23.4648 58.9253 23.5616C58.572 23.9149 58.683 24.6058 58.3682 25.0214C58.1625 25.2929 57.9099 26.0366 57.9099 25.2435C57.9099 24.9922 57.9099 24.8284 57.9099 25.2188C57.9099 25.7191 57.9417 26.2016 57.8111 26.6856C57.7603 26.8739 57.7195 27.0757 57.7195 27.2709C57.7195 27.4982 57.9102 27.4331 58.0932 27.4331C58.239 27.4331 58.2257 27.4766 58.3189 27.56C58.4322 27.6614 58.6451 27.6235 58.7843 27.6235C58.9945 27.6235 59.1173 27.6051 59.3061 27.5107C59.5239 27.4018 59.4965 27.1701 59.4965 26.9606C59.4965 26.6481 59.6191 26.652 59.8139 26.4458C59.9591 26.2921 59.9771 26.4906 60.1594 26.6398C60.3193 26.7706 60.2348 27.0219 60.3604 27.1475C60.4831 27.2702 60.8637 27.5028 60.8928 27.687C60.9382 27.9742 61.1402 28.1248 61.3371 28.3216C61.5204 28.505 61.2724 28.8929 61.464 29.0057C61.604 29.088 61.8605 28.9243 61.9083 29.0198" stroke="white" stroke-width="4" stroke-linecap="round" stroke-linejoin="round"/>
<path d="M61.21 29.464C60.8246 29.9573 59.9996 29.5783 59.4823 29.9577C59.2945 30.0953 59.0695 30.2898 58.8476 30.3667C58.6813 30.4242 58.3975 30.543 58.2271 30.543" stroke="white" stroke-width="4" stroke-linecap="round" stroke-linejoin="round"/>
<path d="M54.6517 31.1992C54.2272 31.1103 53.8218 30.9574 53.415 30.8089C53.0218 30.6654 52.5565 30.53 52.1948 30.3032C52.0372 30.2044 51.9242 30.1052 51.7468 30.0312C51.5585 29.9526 51.3498 29.9675 51.189 29.8388" stroke="white" stroke-width="4" stroke-linecap="round" stroke-linejoin="round"/>
<path d="M51.0158 29.7399C51.1543 29.529 50.938 29.5632 50.7877 29.5667C50.7319 29.568 50.6653 29.585 50.7121 29.6533C50.7672 29.7339 50.9199 29.7365 51.002 29.7893C51.1218 29.8664 51.28 29.935 51.3868 30.0257C51.486 30.11 51.5244 30.2813 51.6341 30.339C51.7443 30.397 51.7389 30.532 51.788 30.6303C51.8439 30.7422 52.0226 30.775 52.0958 30.8639C52.1954 30.9848 52.3031 31.0017 52.4256 31.081C52.4615 31.1042 52.4672 31.178 52.4998 31.2129C52.5402 31.2563 52.5542 31.3168 52.596 31.3586C52.668 31.4306 52.8799 31.614 52.9807 31.6196C53.1931 31.6314 53.3904 31.6749 53.5963 31.7296C53.7232 31.7633 53.8819 31.8146 54.014 31.8175C54.0794 31.8189 54.1452 31.8145 54.2105 31.8189C54.2768 31.8233 54.331 31.8635 54.3905 31.867C54.5363 31.8755 54.6754 31.8958 54.8247 31.8917C54.9373 31.8886 55.0435 31.7524 55.1518 31.7186C55.5159 31.6048 55.8824 31.5743 56.2455 31.4616C56.3623 31.4254 56.5018 31.4262 56.6097 31.3723C56.7042 31.325 56.8248 31.3363 56.9271 31.3173C57.0028 31.3033 57.052 31.2452 57.1249 31.2253C57.2633 31.1875 57.3839 31.1048 57.5221 31.0645C57.5569 31.0543 57.7202 31.0314 57.5894 31.0563C57.4737 31.0782 57.3756 31.1682 57.2651 31.2102C57.0875 31.2775 56.899 31.3005 56.7127 31.3434C56.6864 31.3495 56.6325 31.334 56.6303 31.3723C56.6273 31.4221 56.6203 31.4218 56.5671 31.4218C56.4986 31.4218 56.4867 31.4496 56.4324 31.4767C56.3657 31.5101 56.2793 31.4957 56.2071 31.5097C56.0731 31.5357 55.9481 31.6143 55.8113 31.6196C55.739 31.6225 55.9963 31.4882 56.0243 31.474C56.1802 31.3946 56.3326 31.3161 56.4874 31.2349C56.6837 31.1319 56.9216 31.1094 57.1332 31.0508C57.4802 30.9547 57.9006 30.9323 58.2215 30.7663C58.3512 30.6992 58.5046 30.7427 58.6461 30.7045C58.7591 30.6739 58.845 30.6664 58.947 30.6275C59.0889 30.5735 59.2096 30.5177 59.3386 30.4448C59.399 30.4106 59.4518 30.3612 59.5186 30.339C59.5812 30.3181 59.6022 30.2643 59.6629 30.2373C59.786 30.1826 59.9762 30.1612 60.0779 30.0752C60.1595 30.006 60.3838 29.931 60.4145 29.8388" stroke="white" stroke-width="4" stroke-linecap="round" stroke-linejoin="round"/>
<path d="M59.7224 29.2452C58.379 29.0753 57.038 28.8686 55.6963 28.6846C54.6753 28.5445 53.6535 28.3843 52.6238 28.3218C52.3553 28.3055 52.0698 28.333 51.8076 28.2806" stroke="white" stroke-width="4" stroke-linecap="round" stroke-linejoin="round"/>
<path d="M46.8765 22.7601C46.3141 21.7838 45.7267 20.822 45.1576 19.8496C45.0528 19.6705 45.0388 19.4975 45.0388 19.2908C45.0388 19.0866 44.8536 18.8175 44.6249 18.8175C44.5053 18.8175 44.416 18.9121 44.3037 18.9177C44.2044 18.9227 44.2276 18.9287 44.1961 19.0106C44.1645 19.0926 43.9848 19.1205 43.9177 19.1516C43.7105 19.2477 43.4886 19.2084 43.2828 19.302C43.127 19.3728 42.6049 19.3855 42.7761 19.3855C42.8591 19.3855 42.6263 19.4572 42.5515 19.4932C42.4083 19.5621 42.2667 19.5482 42.1134 19.5526C42.0176 19.5553 41.8214 19.5922 41.7979 19.6862" stroke="white" stroke-width="4" stroke-linecap="round" stroke-linejoin="round"/>
<path d="M42.7669 19.2853C42.6287 19.3142 42.2643 19.3558 42.1989 19.5192C42.1676 19.5975 41.9884 19.6006 41.9168 19.6342C41.5418 19.8107 41.1152 19.9201 40.7065 19.9201C40.5689 19.9201 40.3298 19.8718 40.2035 19.935C40.1235 19.9749 40.374 19.8808 40.4596 19.8551C40.5975 19.8138 40.9035 19.766 40.9961 19.6602C41.0688 19.5772 41.2628 19.5602 41.3655 19.5025C41.4725 19.4422 41.6037 19.4464 41.72 19.4115C41.8422 19.3749 42.0928 19.4054 42.1915 19.3447C42.3324 19.258 42.7801 19.4273 42.8653 19.2853C42.906 19.2175 43.0573 19.2534 43.127 19.2519C43.2167 19.2499 43.2714 19.1766 43.3646 19.185C43.3921 19.1875 43.3278 19.2268 43.3052 19.2426C43.1672 19.3388 43.0156 19.4093 42.8672 19.4876C42.5835 19.6373 42.315 19.8746 42.004 19.9647C41.8401 20.0121 41.6454 20.1008 41.5121 20.2208C41.4672 20.2612 41.4003 20.2557 41.3636 20.3062C41.3063 20.385 41.2376 20.4331 41.1594 20.49C41.0161 20.5942 40.8625 20.6873 40.7214 20.7814C40.578 20.877 40.3361 20.6653 40.2165 20.6218C40.1746 20.6065 40.163 20.5304 40.1608 20.6366C40.1583 20.7585 40.1624 20.8704 40.1868 20.9893C40.2313 21.2061 40.261 21.4533 40.261 21.6761C40.261 21.784 40.2963 22.0335 40.3947 22.0919C40.5246 22.169 40.5284 22.3765 40.6286 22.491C40.742 22.6206 40.8074 22.7921 40.8959 22.9346C41.0189 23.1328 41.1397 23.2915 41.217 23.5063C41.2734 23.6631 41.4148 23.766 41.4304 23.9481C41.4366 24.0195 41.4968 24.0764 41.514 24.1486C41.5439 24.2744 41.5627 24.3936 41.6124 24.5142C41.6723 24.6599 41.7179 24.8341 41.8054 24.9653C41.8453 25.0252 41.9186 25.076 41.9669 25.1324C42.0333 25.2099 42.0599 25.2977 42.1321 25.37C42.201 25.4389 42.2399 25.5617 42.2843 25.6484C42.3373 25.7517 42.4302 25.8242 42.4736 25.9268C42.6073 26.2427 43.0963 26.2701 43.2532 26.5839C43.335 26.7475 43.3974 26.8939 43.5131 27.0517C43.5457 27.0961 43.5328 27.1527 43.5354 27.2039C43.5401 27.2987 43.6156 27.3759 43.669 27.4489C43.7578 27.5704 43.8935 27.5649 44.018 27.6216C44.0799 27.6497 44.0895 27.7114 44.1628 27.7311C44.2683 27.7594 44.3077 27.8086 44.3707 27.8981C44.4496 28.0103 44.5552 28.104 44.6213 28.223C44.6501 28.2748 44.6184 28.3619 44.6714 28.3993C44.7329 28.4427 44.8077 28.4219 44.8719 28.4476C45.0363 28.5134 45.2006 28.5426 45.3749 28.5775C45.5304 28.6086 45.6898 28.6961 45.8482 28.7074C45.9801 28.7169 46.0609 28.8916 46.1972 28.9098C46.3603 28.9315 46.512 28.9413 46.6761 28.9413C47.1208 28.9413 47.577 28.9709 48.02 28.9413C48.2825 28.9238 48.4761 28.3854 48.5138 28.1858C48.5853 27.8067 48.5459 27.4113 48.3096 27.0925C48.0647 26.7622 47.686 26.534 47.3332 26.3389C46.7746 26.0299 46.1848 25.7808 45.5958 25.537C45.1672 25.3597 44.6804 25.2453 44.4858 24.7852C44.3108 24.3718 44.1435 23.9866 43.8918 23.614C43.7755 23.4418 43.7321 23.1959 43.6431 23.0051C43.4311 22.5509 43.17 22.1699 42.8709 21.7689C42.818 21.698 42.7452 21.6087 42.8913 21.6872C43.2279 21.8681 43.5435 22.08 43.8899 22.2441C44.3376 22.4562 44.8125 22.5925 45.2283 22.8696C45.6023 23.119 45.9235 23.452 46.264 23.7439C46.9517 24.3333 47.6747 24.8586 48.4544 25.3217C48.8951 25.5835 49.3517 25.8149 49.7983 26.066C50.3027 26.3498 50.7768 26.681 51.2665 26.9886C51.5343 27.1567 51.7968 27.3267 52.0554 27.5083C52.0962 27.537 52.195 27.6464 52.2002 27.5492C52.2181 27.2156 52.122 26.8341 52.022 26.5245C51.6778 25.4583 51.0841 24.4767 50.4999 23.5286C49.7973 22.3882 48.8998 21.3052 48.4098 20.0463C48.3192 19.8134 48.3431 19.7834 48.3486 20.0834C48.3694 21.2173 48.523 22.3554 48.8052 23.4543C49.068 24.4781 49.4723 25.5504 50.2252 26.3166C50.6778 26.7772 51.3427 27.2112 52.0183 27.2039C52.4651 27.199 52.722 26.4151 52.887 26.118C53.2845 25.4025 53.6919 24.6939 54.1233 23.9982C54.4472 23.4758 54.775 22.9569 54.9586 22.3647C55.2129 21.5445 55.1119 20.7198 55.0959 19.8793C55.0917 19.6551 55.1025 20.2898 55.1033 20.3173C55.1324 21.2839 55.0653 22.2445 54.8101 23.1815C54.6113 23.9112 54.319 24.6112 54.1177 25.3403C54.0217 25.688 53.9811 26.0375 53.9098 26.389C53.8941 26.4664 53.7698 26.8618 53.9265 26.6693C54.5998 25.8419 55.1282 24.9466 55.6379 24.0112C55.9268 23.4812 56.393 22.9262 56.5252 22.3239C56.5707 22.1166 56.5679 21.9017 56.5828 21.6909C56.5869 21.6325 56.5758 21.4968 56.6069 21.4385C56.6798 21.3017 56.9338 21.2278 57.0524 21.1304C57.312 20.9169 57.3463 20.9606 57.5053 21.2714C57.8165 21.8799 58.0623 22.5316 58.283 23.1778C58.4156 23.5656 58.4751 24.0045 58.6506 24.375C58.7739 24.6354 58.6466 25.113 58.5262 25.344C58.3806 25.6233 58.0045 25.8412 57.7336 25.9807C57.4255 26.1392 57.1358 26.3057 56.8371 26.48C56.5203 26.6647 56.8576 26.2281 56.9076 26.1644C57.3055 25.658 57.7049 25.0535 58.2218 24.6609C58.3815 24.5396 58.5773 24.4788 58.7378 24.362C58.7955 24.3201 58.9049 24.1693 58.9049 24.2766C58.9049 24.6238 58.9011 24.9544 58.7898 25.2883C58.7198 25.4982 58.5424 25.7329 58.5373 25.9565C58.5356 26.0348 58.4788 26.1653 58.5114 26.2387C58.5586 26.345 58.7275 26.4249 58.8399 26.4336C59.0103 26.4467 59.1458 26.422 59.3058 26.3686" stroke="white" stroke-width="4" stroke-linecap="round" stroke-linejoin="round"/>
<path d="M59.6353 26.7509C59.7014 26.7074 59.7261 26.6373 59.6868 26.5642C59.667 26.5274 59.7216 26.5133 59.7484 26.5133C59.775 26.5133 59.7827 26.4844 59.7949 26.463C59.809 26.4384 59.8639 26.3952 59.8886 26.38C59.9146 26.364 60.021 26.2053 60.0451 26.2556C60.0678 26.3028 60.121 26.3572 60.1577 26.3951C60.1942 26.4329 60.2493 26.4458 60.2828 26.4844C60.3164 26.5231 60.354 26.5577 60.3871 26.5969C60.4038 26.6166 60.4009 26.6248 60.4066 26.6497C60.4139 26.6815 60.4413 26.7056 60.4525 26.7371C60.4756 26.8023 60.5204 26.8546 60.5518 26.9156C60.5691 26.9492 60.5851 26.9835 60.6028 27.0169C60.6303 27.069 60.6235 27.1269 60.6587 27.1784C60.7082 27.2509 60.7836 27.3271 60.8096 27.4123C60.835 27.4956 60.8725 27.567 60.9278 27.6361C60.9751 27.6953 61.028 27.7522 61.0736 27.8121C61.0907 27.8346 61.0877 27.8539 61.1069 27.8756C61.1408 27.9137 61.1574 27.9819 61.1792 28.0284C61.1962 28.0645 61.2168 28.0974 61.2333 28.134C61.2539 28.1797 61.2967 28.2165 61.3081 28.266C61.3174 28.3061 61.3332 28.3338 61.3553 28.3691" stroke="white" stroke-width="4" stroke-linecap="round" stroke-linejoin="round"/>
<path d="M18.8127 26.2125L22.1304 31.7863V30.8027C21.6479 28.6876 21.7305 27.6593 22.7849 26.2125C23.5248 25.217 24.0459 24.7474 25.4028 24.2453C26.2008 23.9259 27.3523 23.9107 28.348 24.2453C28.8598 25.465 29.0751 26.1302 29.0025 27.1961C28.8099 28.8304 28.5349 29.7153 27.0391 30.8026C25.659 31.539 24.79 31.8127 23.1121 32.1141L23.0162 33L24.4211 38.3436L24.998 46.5C24.6432 47.0051 24.4391 47.2121 24.0162 46.5L23.5162 40.5L23.1121 38.3436L21.0161 37C19.8114 37.8169 18.5272 38.228 16.8945 38.6715C15.6457 38.7824 14.9351 38.7593 13.6221 38.3436C12.3346 37.5971 11.7179 37.1203 11.0042 36.0485C10.3378 34.9258 10.0378 34.2544 10.022 32.7699C10.0397 32.3738 10.0989 32.1589 10.2759 31.7863C10.7038 31.6837 10.9306 31.6283 11.5161 31.5" stroke="black" stroke-width="0.5"/>
<path d="M18.0177 26.5C18.3055 26.8779 19.0458 28.235 19.3335 28.6129L19.702 29.2581L20.0704 29.9032L20.4388 30.5484L20.8072 31.1935L21.1756 31.8387L21.5441 32.4839C21.7645 32.8997 21.7958 33.1392 21.9125 33.4516L22.2809 34.4194L22.6493 35.7097L23.0177 37L21.1756 35.7097C20.1276 32.4472 19.1838 31.587 16.2793 31.1935C14.4271 31.0245 13.3835 31.1221 11.5161 31.5" stroke="black" stroke-width="0.5"/>
<path d="M16.1614 23.381C17.9384 23.7012 18.8301 23.4933 20.3268 22.7375C21.7313 21.4158 22.3149 20.5212 22.8901 18.5547C23.2188 16.609 23.4353 15.484 23.8511 13.4067C24.063 12.4505 24.0789 11.7909 23.8513 11.1544C22.9955 9.87173 22.401 9.72173 20.9674 9.54564C19.5337 9.36955 17.6853 9.51476 18.0838 9.86739M16.1614 23.381C16.6622 22.4891 16.6705 21.9077 16.4818 20.807M16.1614 23.381C15.681 24.5761 15.4093 25.2452 14.5593 26.2768C13.0914 27.942 11.8953 28.1962 9.75308 27.8855C7.40132 27.4094 4.30604 26.5985 3.66521 26.2768C3.02438 25.955 1.83591 25.6766 1.42209 24.0245C1.25438 22.2652 1.83761 21.4357 3.34458 20.1635C3.39219 20.1233 3.43973 20.0828 3.48727 20.042M18.0838 9.86739C17.4356 8.73655 17.0234 8.42413 16.1613 7.29337C15.4876 6.47919 14.7015 6.1015 13.9185 6.00636C12.9126 5.96395 12.4304 6.12874 11.6756 6.64986C10.8487 7.58942 10.4653 8.15017 10.0735 9.22389C9.50888 10.4175 9.43266 12.4414 9.43266 12.4414C9.42893 12.9159 9.43498 13.3361 9.46588 13.7284M18.0838 9.86739C19.6178 12.0116 20.1214 13.6866 20.3268 14.6937C20.5713 15.9074 20.2087 17.0345 20.0063 17.5894C19.804 18.1444 17.851 20.3609 16.4818 20.807M16.4818 20.807C15.1733 18.2929 13.7141 17.4945 10.7143 17.0662M10.7143 17.0662C10.4102 17.0228 10.0903 16.9832 9.75308 16.9459C6.39592 17.2798 4.94425 18.7913 3.48727 20.042M10.7143 17.0662C9.85065 15.7599 9.55497 14.8596 9.46588 13.7284M2.38355 14.3719C2.38355 14.3719 4.2539 13.5507 5.90811 13.4067C7.43541 13.4264 8.24748 13.4943 9.46588 13.7284M2.38355 14.3719C1.31006 12.6254 1.43168 11.3531 3.34462 11.1544L9.43249 12.1197M2.38355 14.3719C1.12079 15.0273 0.934302 15.3805 1.0168 16C1.70438 17.956 2.32351 18.7227 3.48727 20.042" stroke="black" stroke-width="0.5"/>
<path d="M12.5144 6.13045C11.6878 4.82962 9.18442 6.80109 8.93287 7.21155C8.71303 7.57027 8.09235 9.07029 8.00842 10.4261M8.01611 12C8.00307 11.8143 7.99632 10.6217 8.00842 10.4261M11.0144 5.81521C11.0144 5.81521 6.70501 3.91962 5.41487 6.13045M5.41487 6.13045C4.93709 7.3781 4.88414 8.56091 5.41487 9.73715M5.41487 6.13045C3.52398 7.17835 2.7179 8.87438 3.01596 11L3.69551 10.3686C4.25086 9.96342 4.27958 9.8164 5.41487 9.73715M5.41487 9.73715C6.65745 9.90998 7.31102 10.0676 8.00842 10.4261" stroke="black" stroke-width="0.5"/>
<path d="M18.5161 23.5C18.9991 24.0018 19.6909 25.846 18.0362 26.7853C16.6236 27.5646 15.6872 26.0282 15.0161 25.2711" stroke="black" stroke-width="0.5"/>
<path d="M49.7897 30.7654C49.7609 30.7687 49.7323 30.772 49.7037 30.7753M49.7037 30.7753C46.3972 31.1543 44.8189 31.1363 43.3681 30.071C43.0824 29.9187 40.5587 26.7855 39.8006 25.2101C39.0425 23.6347 38.4081 22.3326 38.0169 20.002C38.0002 19.2602 38.2574 18.8812 39.0871 18.266C39.8713 17.7603 40.8778 17.4403 41.9411 17.2244C43.6966 16.9092 44.4364 16.9417 45.5087 17.2244C48.3392 18.3132 49.7803 19.0196 51.2168 21.0436C52.3104 23.0897 53.1413 24.2435 53.0005 26.2517C52.1076 28.8532 51.3244 30.4825 49.7037 30.7753Z" stroke="black" stroke-width="0.5"/>
<path d="M49.5122 30.6239C50.073 32.1165 50.8559 32.6856 52.4025 33.6136C54.3768 34.2322 55.1015 34.0139 56.5774 33.6136C58.9518 32.8199 60.1839 32.2796 62.358 31.2883C63.2436 30.7958 63.5665 30.5015 63.9637 29.9595C64.1831 29.3047 63.6426 28.2985 63.6426 28.2985C63.6426 28.2985 63.0092 26.7284 62.358 25.641C61.8222 24.9478 61.5454 24.6908 61.0734 24.3122M61.0734 24.3122L59.4677 27.9663C59.0185 29.004 58.7304 29.5695 57.5408 30.2917C56.3812 30.827 55.7043 31.0162 54.3293 30.6239C53.1858 30.2709 52.5491 30.0102 51.439 29.2951M61.0734 24.3122L62.6791 19.9936C62.8446 18.6979 62.5109 18.2749 61.7157 17.6683M61.7157 17.6683C60.423 16.9893 59.3358 16.95 56.8985 17.3361C56.0929 17.5203 55.5526 17.7127 55.027 18.0004M61.7157 17.6683C61.5416 16.7058 61.2576 16.2739 60.4311 15.6751C60.2416 15.5965 60.0774 15.5361 59.9239 15.4899M54.0082 18.6649C52.5016 19.911 52.0864 20.1583 51.5161 21.5M54.0082 18.6649L52.4025 16.6717C51.5267 15.6398 51.0243 15.135 50.1544 14.3463C49.4927 13.746 49.131 13.3993 47.9064 13.3497C47.9064 13.3497 46.8719 13.2758 46.2605 14.0816M54.0082 18.6649C54.3818 18.3931 54.7016 18.1785 55.027 18.0004M45.0161 17.3361C45.2896 15.8922 45.7852 14.8355 46.2605 14.0816M46.3007 14.0141C46.2872 14.0368 46.2738 14.0593 46.2605 14.0816M49.1031 13.5764C49.2827 12.9343 49.4724 12.5881 50.1544 12.0209C50.8507 11.6142 51.175 11.7758 51.7602 12.0209C51.9027 12.1078 52.0358 12.1916 52.1607 12.2733M54.9716 16.6717L55.027 18.0004M54.9716 16.6717C54.8979 15.8077 54.7391 15.2974 54.3293 14.3463C54.2405 14.2296 54.155 14.1192 54.0714 14.0141M54.9716 16.6717C55.4368 16.1442 55.7899 15.9346 56.5774 15.6751C57.4339 15.3989 57.9323 15.3587 58.8254 15.3429C59.2587 15.3501 59.5613 15.3807 59.9239 15.4899M54.0714 14.0141C54.5235 13.2315 54.8512 12.8614 55.6139 12.3531C56.083 12.1054 56.8307 11.9847 56.8307 11.9847M54.0714 14.0141C53.5123 13.3117 53.0344 12.8443 52.1607 12.2733M59.9239 15.4899C59.9832 14.6281 59.8831 14.1594 59.4677 13.3497C58.9262 12.5956 58.553 12.2535 57.5408 12.0209C57.2698 11.9906 56.8307 11.9847 56.8307 11.9847M56.8307 11.9847C56.4809 11.6786 56.2886 11.5361 55.9351 11.3565C55.6544 11.2066 55.4546 11.1323 54.9716 11.0243C54.6516 10.9871 54.4267 10.997 54.0082 11.0243C53.6211 11.0966 53.4137 11.1771 53.0448 11.3565C52.5209 11.6393 52.3616 11.8551 52.1607 12.2733" stroke="black" stroke-width="0.5"/>
<path d="M46.3512 31C46.3512 31 45.9857 32.0367 46.0181 32.6941C46.3531 33.8108 47.039 34.2876 49.0166 33.8235C49.6054 33.3845 49.9666 32.0333 50.0161 32" stroke="black" stroke-width="0.5"/>
<path d="M46.6772 33.6134L43.7611 39.8744C41.4146 43.7252 39.8976 45.6357 36.9578 48.7717C37.2108 47.3561 37.3527 46.5625 37.6057 45.1469C39.1318 43.2201 39.7548 41.9878 40.5214 39.5449C40.8527 37.2833 40.6386 35.9892 39.2256 33.6134C38.0632 31.9749 37.2608 31.27 35.6619 30.3181C34.1087 29.5108 33.4244 29.2417 32.4222 29C30.706 30.4474 30.2748 31.0586 29.5066 32.6248C29.024 33.6087 28.859 35.9201 28.859 35.9201C28.859 35.9201 28.7567 38.2543 29.5065 39.8744C30.3029 41.5939 30.9099 42.3293 32.0986 43.4993C33.7066 44.5503 36.3102 45.4764 36.3102 45.4764C36.1763 47.621 35.9535 48.6892 35.3383 50.4194C32.3817 53.2158 30.5856 54.6298 27.2392 57.0099C26.8239 57.8009 26.9604 58.0206 27.8871 57.9985C30.657 56.096 31.9653 55.0975 34.0425 53.3851L39.226 48.1127L41.4937 45.4764L44.4095 44.4878C45.6271 46.1674 46.4378 46.9953 48.2971 48.1127C50.992 48.9013 52.4032 48.7721 54.7764 47.7831C56.3787 46.687 57.1105 45.9765 58.0161 44.4878C57.4854 43.1346 57.004 42.4102 55.7483 41.1926C54.2556 40.0262 53.3169 39.5176 51.2128 39.2154C49.0991 39.1596 48.1557 39.5246 46.6772 40.5335C45.5217 41.5256 45.086 42.1115 44.4095 43.1697L42.7896 43.8288C44.9403 40.3336 46.3666 37.7051 48.0161 34" stroke="black" stroke-width="0.5"/>
</svg>
